<svg xmlns="http://www.w3.org/2000/svg" xmlns:xlink="http://www.w3.org/1999/xlink" width="2380" zoomAndPan="magnify" viewBox="0 0 1784.88 1784.99993" height="2380" preserveAspectRatio="xMidYMid meet" version="1.0"><defs><clipPath id="a2374ccc7c"><path d="M 565.90625 1120.300781 L 638.371094 1120.300781 L 638.371094 1167.132812 L 565.90625 1167.132812 Z M 565.90625 1120.300781 " clip-rule="nonzero"/></clipPath><clipPath id="3edb95b98d"><path d="M 0.90625 0.300781 L 73.371094 0.300781 L 73.371094 47.132812 L 0.90625 47.132812 Z M 0.90625 0.300781 " clip-rule="nonzero"/></clipPath><clipPath id="1e344c53ee"><rect x="0" width="74" y="0" height="48"/></clipPath><clipPath id="90dc421833"><rect x="0" width="1720" y="0" height="1719"/></clipPath></defs><g transform="matrix(1, 0, 0, 1, 0, 65)"><g clip-path="url(#90dc421833)"><path fill="#ffdb6e" d="M 793.125 493.726562 C 791.304688 491.792969 788.117188 493.046875 788.117188 495.660156 L 788.117188 1099.265625 C 820.425781 1118.71875 854.78125 1134.414062 890.617188 1145.90625 L 890.617188 595.882812 C 890.617188 595.199219 890.273438 594.40625 889.707031 593.949219 Z M 793.125 493.726562 " fill-opacity="1" fill-rule="nonzero"/><path fill="#ffdb6e" d="M 1074.109375 681.316406 L 1027.582031 732.28125 C 1026.441406 733.53125 1024.507812 733.53125 1023.371094 732.28125 L 981.734375 689.164062 C 979.914062 687.34375 976.730469 688.597656 976.730469 691.210938 L 976.730469 1165.128906 C 998.230469 1167.976562 1019.957031 1169.453125 1042.027344 1169.453125 C 1054.542969 1169.453125 1066.941406 1169 1079.226562 1168.089844 L 1079.226562 683.25 C 1079.226562 680.632812 1075.929688 679.382812 1074.109375 681.316406 Z M 1074.109375 681.316406 " fill-opacity="1" fill-rule="nonzero"/><path fill="#ffdb6e" d="M 1220.058594 526.375 C 1218.808594 525.238281 1216.988281 525.238281 1215.851562 526.492188 L 1166.136719 580.753906 C 1165.683594 581.320312 1165.34375 582.003906 1165.34375 582.6875 L 1165.34375 1153.980469 C 1201.0625 1144.882812 1235.304688 1131.800781 1267.839844 1114.964844 L 1267.839844 575.40625 C 1267.839844 574.722656 1267.609375 573.929688 1267.042969 573.359375 Z M 1220.058594 526.375 " fill-opacity="1" fill-rule="nonzero"/><path fill="#ffdb6e" d="M 1358.960938 665.277344 C 1357.140625 663.457031 1354.066406 664.820312 1354.066406 667.324219 L 1354.066406 1058.082031 C 1366.46875 1047.960938 1378.410156 1037.152344 1389.902344 1025.664062 C 1415.382812 1000.292969 1437.679688 972.421875 1456.5625 942.847656 L 1456.5625 763.222656 C 1456.5625 762.425781 1456.222656 761.742188 1455.652344 761.175781 Z M 1358.960938 665.277344 " fill-opacity="1" fill-rule="nonzero"/><path fill="#ffdb6e" d="M 1479.203125 646.050781 L 1456.5625 623.414062 L 1454.742188 621.59375 C 1456.675781 616.019531 1457.929688 609.988281 1457.929688 603.734375 C 1457.929688 574.609375 1434.378906 551.0625 1405.257812 551.0625 C 1399 551.0625 1392.972656 552.199219 1387.398438 554.246094 L 1354.066406 520.917969 L 1268.40625 435.257812 C 1268.976562 432.296875 1269.203125 429.226562 1269.203125 426.15625 C 1269.203125 397.035156 1245.65625 373.484375 1216.648438 373.484375 C 1187.523438 373.484375 1163.976562 397.035156 1163.976562 426.15625 C 1163.976562 429.796875 1164.433594 433.320312 1165.113281 436.847656 L 1079.226562 530.699219 L 1049.992188 562.550781 C 1043.277344 559.480469 1035.886719 557.660156 1027.921875 557.660156 C 1017.457031 557.660156 1007.785156 560.730469 999.597656 566.078125 L 976.730469 542.417969 L 890.617188 453.117188 L 888.566406 451.070312 C 890.730469 445.378906 891.980469 439.125 891.980469 432.753906 C 891.980469 403.632812 868.433594 380.082031 839.308594 380.082031 C 833.507812 380.082031 827.933594 381.105469 822.703125 382.8125 L 798.699219 357.898438 C 797.675781 356.761719 797.675781 354.941406 798.8125 353.804688 L 825.089844 328.324219 C 826.683594 326.84375 826 324.113281 823.839844 323.546875 L 730.558594 297.039062 L 710.195312 291.238281 C 708.03125 290.667969 705.984375 292.601562 706.554688 294.765625 L 711.332031 313.761719 L 735.449219 409.320312 C 736.015625 411.480469 738.746094 412.277344 740.339844 410.683594 L 762.75 388.957031 C 763.886719 387.820312 765.707031 387.820312 766.847656 388.957031 L 788.117188 411.027344 L 790.394531 413.414062 C 788.003906 419.445312 786.753906 425.929688 786.753906 432.753906 C 786.753906 461.761719 810.300781 485.308594 839.308594 485.308594 C 845.453125 485.308594 851.367188 484.171875 856.828125 482.238281 L 890.617188 517.277344 L 975.59375 605.324219 C 975.480469 607.03125 975.367188 608.625 975.367188 610.332031 C 975.367188 639.339844 998.914062 662.886719 1027.921875 662.886719 C 1057.042969 662.886719 1080.59375 639.339844 1080.59375 610.332031 C 1080.59375 605.667969 1079.910156 601.34375 1078.886719 597.132812 L 1079.226562 596.679688 L 1165.34375 502.488281 L 1192.53125 472.910156 C 1199.699219 476.550781 1207.886719 478.710938 1216.648438 478.710938 C 1225.863281 478.710938 1234.621094 476.324219 1242.242188 472.113281 L 1267.839844 497.824219 L 1354.066406 583.9375 L 1355.886719 585.757812 C 1353.839844 591.445312 1352.703125 597.363281 1352.703125 603.734375 C 1352.703125 632.742188 1376.25 656.289062 1405.257812 656.289062 C 1411.515625 656.289062 1417.546875 655.152344 1423.121094 653.105469 L 1447.578125 677.5625 C 1448.714844 678.699219 1450.535156 678.699219 1451.671875 677.5625 L 1456.5625 672.785156 L 1479.203125 650.144531 C 1480.226562 649.007812 1480.226562 647.1875 1479.203125 646.050781 Z M 1479.203125 646.050781 " fill-opacity="1" fill-rule="nonzero"/><path fill="#ffdb6e" d="M 1520.835938 199.09375 C 1256.804688 -64.941406 827.25 -64.941406 563.21875 199.09375 C 310.675781 451.636719 299.867188 855.707031 530.570312 1121.449219 L 390.191406 1261.824219 C 342.867188 1241.578125 285.988281 1250.5625 247.3125 1289.242188 L 50.394531 1486.15625 C -0.226562 1536.78125 -0.226562 1618.914062 50.394531 1669.535156 C 101.015625 1720.160156 183.152344 1720.160156 233.773438 1669.535156 L 430.691406 1472.621094 C 469.367188 1433.941406 478.355469 1377.0625 458.105469 1329.738281 L 598.484375 1189.363281 C 864.222656 1420.0625 1268.179688 1409.371094 1520.835938 1156.710938 C 1784.871094 892.679688 1784.871094 463.011719 1520.835938 199.09375 Z M 1446.210938 1081.972656 C 1223.359375 1304.828125 860.8125 1304.828125 637.957031 1081.972656 C 415.105469 859.121094 415.105469 496.570312 637.957031 273.71875 C 860.8125 50.867188 1223.359375 50.867188 1446.210938 273.71875 C 1668.949219 496.570312 1668.949219 859.121094 1446.210938 1081.972656 Z M 1446.210938 1081.972656 " fill-opacity="1" fill-rule="nonzero"/><g clip-path="url(#a2374ccc7c)"><g transform="matrix(1, 0, 0, 1, 565, 1120)"><g clip-path="url(#1e344c53ee)"><g clip-path="url(#3edb95b98d)"><path fill="#ffdb6e" d="M 0.90625 0.300781 L 73.34375 0.300781 L 73.34375 47.132812 L 0.90625 47.132812 Z M 0.90625 0.300781 " fill-opacity="1" fill-rule="nonzero"/></g></g></g></g></g></g></svg>