<svg xmlns="http://www.w3.org/2000/svg" xmlns:xlink="http://www.w3.org/1999/xlink" width="2380" zoomAndPan="magnify" viewBox="0 0 1784.88 1784.99993" height="2380" preserveAspectRatio="xMidYMid meet" version="1.0"><defs><clipPath id="d3628407a8"><path d="M 450.546875 781.222656 L 501.332031 781.222656 L 501.332031 814.042969 L 450.546875 814.042969 Z M 450.546875 781.222656 " clip-rule="nonzero"/></clipPath><clipPath id="2958907597"><path d="M 0.546875 0.222656 L 51.332031 0.222656 L 51.332031 33.042969 L 0.546875 33.042969 Z M 0.546875 0.222656 " clip-rule="nonzero"/></clipPath><clipPath id="cf171bddcf"><rect x="0" width="52" y="0" height="34"/></clipPath><clipPath id="76358ff27e"><rect x="0" width="1267" y="0" height="1179"/></clipPath></defs><g transform="matrix(1, 0, 0, 1, 268, 304)"><g clip-path="url(#76358ff27e)"><path fill="#ffdb6e" d="M 1244.324219 589.589844 C 1244.324219 583.625 1244.046875 577.667969 1243.492188 571.730469 C 1242.933594 565.789062 1242.101562 559.886719 1240.992188 554.023438 C 1239.882812 548.160156 1238.5 542.363281 1236.84375 536.628906 C 1235.191406 530.898438 1233.269531 525.253906 1231.085938 519.703125 C 1228.902344 514.148438 1226.464844 508.710938 1223.769531 503.386719 C 1221.074219 498.0625 1218.136719 492.878906 1214.957031 487.828125 C 1211.777344 482.78125 1208.367188 477.894531 1204.726562 473.164062 C 1201.085938 468.4375 1197.234375 463.890625 1193.167969 459.523438 C 1190.398438 456.726562 1187.796875 453.785156 1185.363281 450.699219 C 1182.925781 447.609375 1180.671875 444.394531 1178.597656 441.054688 C 1176.523438 437.710938 1174.644531 434.265625 1172.960938 430.710938 C 1171.277344 427.15625 1169.796875 423.519531 1168.519531 419.796875 C 1167.246094 416.078125 1166.183594 412.296875 1165.335938 408.457031 C 1164.484375 404.617188 1163.855469 400.742188 1163.441406 396.828125 C 1163.03125 392.917969 1162.839844 388.996094 1162.871094 385.0625 C 1162.898438 381.128906 1163.152344 377.210938 1163.621094 373.304688 C 1163.726562 372.453125 1163.777344 371.597656 1163.773438 370.738281 C 1163.765625 367.828125 1163.691406 364.917969 1163.554688 362.011719 C 1163.414062 359.105469 1163.207031 356.203125 1162.9375 353.304688 C 1162.664062 350.40625 1162.328125 347.515625 1161.925781 344.636719 C 1161.523438 341.753906 1161.054688 338.882812 1160.519531 336.019531 C 1159.988281 333.160156 1159.390625 330.3125 1158.726562 327.480469 C 1158.0625 324.644531 1157.335938 321.828125 1156.546875 319.027344 C 1155.753906 316.226562 1154.898438 313.445312 1153.984375 310.683594 C 1153.066406 307.921875 1152.085938 305.183594 1151.042969 302.464844 C 1150 299.75 1148.898438 297.054688 1147.730469 294.390625 C 1146.566406 291.722656 1145.34375 289.082031 1144.058594 286.472656 C 1142.773438 283.859375 1141.429688 281.28125 1140.027344 278.730469 C 1138.625 276.179688 1137.167969 273.664062 1135.648438 271.179688 C 1134.132812 268.695312 1132.558594 266.246094 1130.933594 263.835938 C 1129.304688 261.421875 1127.621094 259.050781 1125.886719 256.714844 C 1124.148438 254.378906 1122.363281 252.082031 1120.523438 249.828125 C 1118.679688 247.574219 1116.789062 245.363281 1114.851562 243.195312 C 1112.910156 241.027344 1110.917969 238.902344 1108.882812 236.824219 C 1106.84375 234.746094 1104.761719 232.714844 1102.628906 230.734375 C 1100.5 228.75 1098.328125 226.816406 1096.109375 224.933594 C 1093.890625 223.046875 1091.632812 221.214844 1089.332031 219.433594 C 1087.027344 217.652344 1084.6875 215.925781 1082.308594 214.25 C 1079.929688 212.574219 1077.511719 210.953125 1075.058594 209.390625 C 1072.605469 207.824219 1070.117188 206.316406 1067.59375 204.863281 C 1065.074219 203.410156 1062.519531 202.019531 1059.933594 200.683594 C 1057.347656 199.347656 1054.734375 198.070312 1052.089844 196.855469 C 1049.445312 195.636719 1046.777344 194.480469 1044.078125 193.386719 C 1041.382812 192.289062 1038.664062 191.257812 1035.921875 190.285156 C 1033.175781 189.3125 1030.414062 188.40625 1027.628906 187.558594 C 1024.84375 186.714844 1022.042969 185.929688 1019.222656 185.214844 C 1016.402344 184.496094 1013.566406 183.839844 1010.714844 183.25 C 1007.867188 182.660156 1005.003906 182.136719 1002.132812 181.679688 C 999.257812 181.21875 996.375 180.824219 993.484375 180.496094 C 992.761719 174.75 991.789062 169.046875 990.566406 163.382812 C 989.347656 157.71875 987.878906 152.121094 986.167969 146.589844 C 984.457031 141.054688 982.507812 135.605469 980.316406 130.242188 C 978.128906 124.878906 975.710938 119.621094 973.0625 114.472656 C 970.414062 109.320312 967.546875 104.292969 964.457031 99.394531 C 961.367188 94.492188 958.070312 89.738281 954.566406 85.125 C 951.0625 80.511719 947.359375 76.0625 943.464844 71.777344 C 939.570312 67.488281 935.496094 63.378906 931.242188 59.445312 C 928.855469 57.25 926.414062 55.113281 923.914062 53.039062 C 921.417969 50.96875 918.867188 48.960938 916.265625 47.023438 C 913.664062 45.082031 911.011719 43.210938 908.316406 41.40625 C 905.617188 39.601562 902.875 37.871094 900.085938 36.207031 C 897.296875 34.546875 894.46875 32.957031 891.597656 31.441406 C 888.726562 29.929688 885.820312 28.488281 882.875 27.121094 C 879.929688 25.757812 876.953125 24.46875 873.941406 23.257812 C 870.929688 22.046875 867.890625 20.914062 864.820312 19.863281 C 861.75 18.808594 858.65625 17.832031 855.535156 16.941406 C 852.414062 16.046875 849.273438 15.234375 846.113281 14.503906 C 842.949219 13.769531 839.769531 13.121094 836.574219 12.554688 C 833.378906 11.988281 830.171875 11.503906 826.949219 11.101562 C 823.730469 10.699219 820.5 10.382812 817.261719 10.148438 C 814.027344 9.914062 810.785156 9.761719 807.539062 9.695312 C 804.292969 9.628906 801.050781 9.648438 797.804688 9.75 C 794.5625 9.847656 791.324219 10.035156 788.089844 10.300781 C 784.855469 10.570312 781.628906 10.921875 778.410156 11.359375 C 775.195312 11.792969 771.992188 12.3125 768.804688 12.914062 C 765.613281 13.511719 762.441406 14.195312 759.289062 14.960938 C 756.132812 15.726562 753 16.570312 749.890625 17.496094 C 746.78125 18.425781 743.695312 19.429688 740.636719 20.515625 C 737.578125 21.601562 734.550781 22.769531 731.550781 24.011719 C 728.554688 25.253906 725.589844 26.574219 722.660156 27.96875 C 719.730469 29.363281 716.835938 30.835938 713.984375 32.382812 C 711.128906 33.925781 708.316406 35.546875 705.546875 37.234375 C 702.777344 38.925781 700.050781 40.6875 697.371094 42.519531 C 694.691406 44.351562 692.0625 46.25 689.480469 48.21875 C 686.898438 50.1875 684.371094 52.21875 681.894531 54.320312 C 679.417969 56.417969 677 58.578125 674.632812 60.800781 C 672.269531 63.027344 669.964844 65.308594 667.71875 67.652344 C 665.472656 69.996094 663.289062 72.394531 661.167969 74.847656 C 659.042969 77.304688 656.988281 79.8125 654.996094 82.375 L 654.996094 393.148438 L 749.335938 393.148438 C 750.410156 393.144531 751.480469 393.117188 752.550781 393.066406 C 753.617188 393.011719 754.6875 392.929688 755.753906 392.824219 C 756.820312 392.71875 757.882812 392.585938 758.941406 392.429688 C 760 392.269531 761.054688 392.085938 762.105469 391.875 C 763.15625 391.667969 764.203125 391.429688 765.242188 391.171875 C 766.28125 390.910156 767.3125 390.621094 768.335938 390.3125 C 769.363281 390 770.378906 389.664062 771.386719 389.300781 C 772.394531 388.941406 773.394531 388.554688 774.382812 388.144531 C 775.375 387.734375 776.351562 387.296875 777.320312 386.839844 C 778.289062 386.382812 779.246094 385.898438 780.191406 385.394531 C 781.136719 384.886719 782.066406 384.359375 782.984375 383.808594 C 783.902344 383.257812 784.808594 382.683594 785.699219 382.089844 C 786.589844 381.492188 787.464844 380.875 788.324219 380.238281 C 789.1875 379.601562 790.03125 378.941406 790.859375 378.261719 C 791.6875 377.582031 792.496094 376.882812 793.292969 376.164062 C 794.085938 375.441406 794.859375 374.703125 795.617188 373.945312 C 796.375 373.1875 797.113281 372.414062 797.832031 371.621094 C 798.554688 370.824219 799.253906 370.015625 799.933594 369.1875 C 800.613281 368.359375 801.269531 367.515625 801.910156 366.65625 C 802.546875 365.792969 803.164062 364.917969 803.761719 364.027344 C 804.355469 363.136719 804.929688 362.234375 805.480469 361.3125 C 806.03125 360.394531 806.558594 359.464844 807.066406 358.519531 C 807.570312 357.574219 808.050781 356.617188 808.511719 355.648438 C 808.96875 354.679688 809.402344 353.703125 809.8125 352.714844 C 810.226562 351.722656 810.609375 350.722656 810.972656 349.714844 C 811.332031 348.707031 811.671875 347.691406 811.980469 346.664062 C 812.292969 345.640625 812.582031 344.609375 812.839844 343.570312 C 813.101562 342.53125 813.339844 341.484375 813.546875 340.4375 C 813.757812 339.386719 813.941406 338.328125 814.101562 337.269531 C 814.257812 336.210938 814.390625 335.148438 814.496094 334.082031 C 814.601562 333.015625 814.683594 331.949219 814.734375 330.878906 C 814.789062 329.808594 814.816406 328.738281 814.816406 327.664062 L 814.816406 271.351562 C 813.617188 270.925781 812.429688 270.46875 811.253906 269.972656 C 810.078125 269.480469 808.917969 268.953125 807.777344 268.390625 C 806.632812 267.828125 805.503906 267.234375 804.398438 266.605469 C 803.289062 265.976562 802.199219 265.320312 801.125 264.628906 C 800.054688 263.9375 799.007812 263.214844 797.976562 262.460938 C 796.949219 261.707031 795.945312 260.925781 794.960938 260.117188 C 793.976562 259.304688 793.019531 258.464844 792.085938 257.597656 C 791.152344 256.730469 790.246094 255.835938 789.363281 254.917969 C 788.480469 253.996094 787.628906 253.050781 786.800781 252.082031 C 785.972656 251.113281 785.175781 250.117188 784.410156 249.101562 C 783.640625 248.085938 782.902344 247.046875 782.195312 245.988281 C 781.484375 244.925781 780.808594 243.847656 780.164062 242.75 C 779.519531 241.648438 778.90625 240.53125 778.328125 239.398438 C 777.75 238.261719 777.203125 237.109375 776.691406 235.945312 C 776.179688 234.777344 775.699219 233.597656 775.257812 232.402344 C 774.8125 231.207031 774.40625 230 774.03125 228.78125 C 773.660156 227.5625 773.320312 226.335938 773.019531 225.097656 C 772.71875 223.859375 772.453125 222.613281 772.226562 221.359375 C 771.996094 220.105469 771.804688 218.84375 771.648438 217.582031 C 771.496094 216.316406 771.378906 215.046875 771.296875 213.777344 C 771.214844 212.503906 771.171875 211.230469 771.164062 209.957031 C 771.160156 208.683594 771.1875 207.40625 771.257812 206.136719 C 771.324219 204.863281 771.429688 203.59375 771.570312 202.328125 C 771.710938 201.058594 771.890625 199.800781 772.105469 198.542969 C 772.324219 197.289062 772.574219 196.039062 772.863281 194.796875 C 773.152344 193.554688 773.476562 192.324219 773.835938 191.101562 C 774.195312 189.878906 774.59375 188.667969 775.023438 187.46875 C 775.453125 186.269531 775.917969 185.082031 776.421875 183.910156 C 776.921875 182.738281 777.453125 181.582031 778.023438 180.441406 C 778.589844 179.300781 779.191406 178.179688 779.824219 177.070312 C 780.457031 175.964844 781.121094 174.878906 781.820312 173.8125 C 782.515625 172.746094 783.242188 171.699219 784 170.675781 C 784.757812 169.652344 785.546875 168.648438 786.363281 167.671875 C 787.179688 166.691406 788.023438 165.738281 788.894531 164.808594 C 789.765625 163.878906 790.664062 162.976562 791.589844 162.097656 C 792.515625 161.222656 793.464844 160.375 794.4375 159.550781 C 795.414062 158.730469 796.410156 157.9375 797.429688 157.175781 C 798.453125 156.410156 799.496094 155.679688 800.558594 154.976562 C 801.621094 154.273438 802.703125 153.605469 803.804688 152.964844 C 804.910156 152.324219 806.03125 151.71875 807.167969 151.144531 C 808.304688 150.570312 809.460938 150.03125 810.628906 149.527344 C 811.796875 149.019531 812.980469 148.546875 814.179688 148.109375 C 815.375 147.671875 816.585938 147.269531 817.804688 146.902344 C 819.023438 146.539062 820.253906 146.207031 821.496094 145.910156 C 822.734375 145.617188 823.984375 145.359375 825.238281 145.136719 C 826.492188 144.914062 827.753906 144.730469 829.019531 144.582031 C 830.285156 144.433594 831.554688 144.320312 832.824219 144.246094 C 834.097656 144.171875 835.371094 144.136719 836.644531 144.136719 C 837.917969 144.136719 839.191406 144.171875 840.464844 144.246094 C 841.738281 144.320312 843.007812 144.433594 844.273438 144.582031 C 845.539062 144.730469 846.796875 144.914062 848.054688 145.136719 C 849.308594 145.359375 850.554688 145.617188 851.796875 145.910156 C 853.035156 146.207031 854.265625 146.539062 855.484375 146.902344 C 856.707031 147.269531 857.914062 147.671875 859.113281 148.109375 C 860.308594 148.546875 861.492188 149.019531 862.660156 149.527344 C 863.832031 150.03125 864.984375 150.570312 866.121094 151.144531 C 867.261719 151.71875 868.382812 152.324219 869.484375 152.964844 C 870.585938 153.605469 871.667969 154.273438 872.734375 154.976562 C 873.796875 155.679688 874.839844 156.410156 875.859375 157.175781 C 876.878906 157.9375 877.875 158.730469 878.851562 159.550781 C 879.824219 160.375 880.773438 161.222656 881.699219 162.097656 C 882.625 162.976562 883.523438 163.878906 884.394531 164.808594 C 885.265625 165.738281 886.113281 166.691406 886.929688 167.671875 C 887.746094 168.648438 888.53125 169.652344 889.289062 170.675781 C 890.046875 171.699219 890.773438 172.746094 891.472656 173.8125 C 892.167969 174.878906 892.832031 175.964844 893.464844 177.070312 C 894.101562 178.179688 894.699219 179.300781 895.269531 180.441406 C 895.835938 181.582031 896.371094 182.738281 896.871094 183.910156 C 897.371094 185.085938 897.835938 186.269531 898.265625 187.46875 C 898.699219 188.667969 899.09375 189.878906 899.453125 191.101562 C 899.8125 192.324219 900.140625 193.554688 900.425781 194.796875 C 900.714844 196.039062 900.96875 197.289062 901.183594 198.542969 C 901.398438 199.800781 901.578125 201.058594 901.71875 202.328125 C 901.859375 203.59375 901.964844 204.863281 902.035156 206.136719 C 902.101562 207.410156 902.132812 208.683594 902.125 209.957031 C 902.117188 211.230469 902.074219 212.503906 901.992188 213.777344 C 901.914062 215.046875 901.796875 216.316406 901.640625 217.582031 C 901.484375 218.84375 901.292969 220.105469 901.066406 221.359375 C 900.835938 222.613281 900.570312 223.859375 900.269531 225.097656 C 899.96875 226.335938 899.632812 227.5625 899.257812 228.78125 C 898.886719 230 898.476562 231.207031 898.035156 232.402344 C 897.589844 233.597656 897.113281 234.777344 896.601562 235.945312 C 896.085938 237.109375 895.542969 238.261719 894.960938 239.398438 C 894.382812 240.53125 893.769531 241.648438 893.125 242.75 C 892.480469 243.847656 891.804688 244.925781 891.097656 245.988281 C 890.386719 247.046875 889.648438 248.085938 888.882812 249.101562 C 888.113281 250.117188 887.316406 251.113281 886.488281 252.082031 C 885.664062 253.050781 884.808594 253.996094 883.925781 254.917969 C 883.046875 255.835938 882.136719 256.730469 881.203125 257.597656 C 880.269531 258.464844 879.3125 259.304688 878.328125 260.117188 C 877.347656 260.925781 876.339844 261.707031 875.3125 262.460938 C 874.285156 263.214844 873.234375 263.9375 872.164062 264.628906 C 871.09375 265.320312 870.003906 265.976562 868.894531 266.605469 C 867.785156 267.234375 866.65625 267.828125 865.515625 268.390625 C 864.371094 268.953125 863.210938 269.480469 862.035156 269.972656 C 860.863281 270.46875 859.671875 270.925781 858.472656 271.351562 L 858.472656 327.664062 C 858.46875 329.453125 858.425781 331.234375 858.335938 333.019531 C 858.246094 334.800781 858.113281 336.582031 857.933594 338.359375 C 857.757812 340.136719 857.539062 341.90625 857.273438 343.671875 C 857.011719 345.4375 856.703125 347.199219 856.355469 348.949219 C 856.003906 350.699219 855.613281 352.441406 855.175781 354.171875 C 854.742188 355.902344 854.261719 357.625 853.742188 359.332031 C 853.222656 361.039062 852.664062 362.734375 852.0625 364.414062 C 851.457031 366.097656 850.816406 367.761719 850.128906 369.410156 C 849.445312 371.058594 848.722656 372.691406 847.957031 374.304688 C 847.195312 375.917969 846.390625 377.511719 845.546875 379.085938 C 844.707031 380.660156 843.824219 382.214844 842.90625 383.746094 C 841.988281 385.277344 841.03125 386.785156 840.039062 388.269531 C 839.046875 389.75 838.019531 391.210938 836.957031 392.644531 C 835.890625 394.078125 834.792969 395.484375 833.660156 396.867188 C 832.527344 398.246094 831.363281 399.597656 830.164062 400.921875 C 828.964844 402.242188 827.730469 403.535156 826.46875 404.796875 C 825.207031 406.0625 823.914062 407.292969 822.589844 408.492188 C 821.269531 409.691406 819.917969 410.855469 818.535156 411.988281 C 817.15625 413.121094 815.75 414.21875 814.316406 415.285156 C 812.882812 416.347656 811.421875 417.375 809.9375 418.367188 C 808.453125 419.359375 806.945312 420.316406 805.414062 421.234375 C 803.882812 422.152344 802.332031 423.035156 800.757812 423.875 C 799.183594 424.71875 797.589844 425.523438 795.976562 426.285156 C 794.363281 427.050781 792.730469 427.773438 791.082031 428.460938 C 789.433594 429.144531 787.765625 429.785156 786.085938 430.390625 C 784.40625 430.992188 782.710938 431.554688 781.003906 432.074219 C 779.292969 432.59375 777.574219 433.070312 775.84375 433.503906 C 774.113281 433.941406 772.371094 434.332031 770.621094 434.683594 C 768.867188 435.03125 767.109375 435.339844 765.34375 435.601562 C 763.578125 435.867188 761.808594 436.085938 760.03125 436.265625 C 758.253906 436.441406 756.472656 436.574219 754.691406 436.664062 C 752.90625 436.753906 751.121094 436.796875 749.335938 436.800781 L 654.996094 436.800781 L 654.996094 510.925781 L 901.996094 510.925781 C 903.070312 510.925781 904.140625 510.898438 905.210938 510.84375 C 906.277344 510.789062 907.347656 510.710938 908.414062 510.601562 C 909.480469 510.496094 910.542969 510.367188 911.601562 510.207031 C 912.660156 510.050781 913.714844 509.863281 914.765625 509.65625 C 915.816406 509.445312 916.863281 509.210938 917.902344 508.949219 C 918.941406 508.6875 919.972656 508.402344 920.996094 508.089844 C 922.023438 507.777344 923.039062 507.441406 924.046875 507.078125 C 925.054688 506.71875 926.054688 506.332031 927.042969 505.921875 C 928.035156 505.511719 929.011719 505.078125 929.980469 504.617188 C 930.949219 504.160156 931.90625 503.675781 932.851562 503.171875 C 933.796875 502.667969 934.726562 502.136719 935.644531 501.585938 C 936.5625 501.035156 937.46875 500.464844 938.359375 499.867188 C 939.25 499.273438 940.125 498.65625 940.984375 498.015625 C 941.847656 497.378906 942.691406 496.71875 943.519531 496.039062 C 944.347656 495.359375 945.15625 494.660156 945.953125 493.941406 C 946.746094 493.222656 947.519531 492.484375 948.277344 491.726562 C 949.035156 490.96875 949.773438 490.191406 950.492188 489.398438 C 951.214844 488.605469 951.914062 487.792969 952.59375 486.964844 C 953.273438 486.136719 953.929688 485.292969 954.570312 484.433594 C 955.207031 483.574219 955.824219 482.695312 956.421875 481.804688 C 957.015625 480.914062 957.589844 480.011719 958.140625 479.09375 C 958.691406 478.175781 959.21875 477.242188 959.726562 476.296875 C 960.230469 475.351562 960.710938 474.398438 961.171875 473.429688 C 961.628906 472.460938 962.0625 471.480469 962.476562 470.492188 C 962.886719 469.503906 963.269531 468.503906 963.632812 467.496094 C 963.992188 466.484375 964.332031 465.46875 964.640625 464.445312 C 964.953125 463.417969 965.242188 462.386719 965.5 461.347656 C 965.761719 460.308594 966 459.265625 966.207031 458.214844 C 966.417969 457.164062 966.601562 456.109375 966.761719 455.046875 C 966.917969 453.988281 967.050781 452.925781 967.15625 451.859375 C 967.261719 450.792969 967.34375 449.726562 967.394531 448.65625 C 967.449219 447.585938 967.476562 446.515625 967.476562 445.445312 L 967.476562 389.128906 C 966.277344 388.707031 965.089844 388.246094 963.914062 387.753906 C 962.738281 387.257812 961.578125 386.730469 960.4375 386.167969 C 959.292969 385.605469 958.164062 385.011719 957.054688 384.382812 C 955.949219 383.757812 954.859375 383.097656 953.785156 382.40625 C 952.714844 381.714844 951.667969 380.992188 950.636719 380.238281 C 949.609375 379.488281 948.605469 378.707031 947.621094 377.894531 C 946.636719 377.082031 945.679688 376.242188 944.746094 375.375 C 943.8125 374.507812 942.90625 373.617188 942.023438 372.695312 C 941.140625 371.773438 940.289062 370.828125 939.460938 369.859375 C 938.632812 368.890625 937.835938 367.894531 937.070312 366.878906 C 936.300781 365.863281 935.5625 364.824219 934.855469 363.765625 C 934.144531 362.707031 933.46875 361.625 932.824219 360.527344 C 932.179688 359.425781 931.566406 358.308594 930.988281 357.175781 C 930.410156 356.039062 929.863281 354.890625 929.351562 353.722656 C 928.839844 352.554688 928.359375 351.375 927.917969 350.179688 C 927.472656 348.984375 927.066406 347.777344 926.691406 346.558594 C 926.320312 345.339844 925.980469 344.113281 925.679688 342.875 C 925.378906 341.636719 925.113281 340.390625 924.886719 339.136719 C 924.65625 337.882812 924.464844 336.625 924.308594 335.359375 C 924.15625 334.09375 924.039062 332.824219 923.957031 331.554688 C 923.875 330.28125 923.832031 329.007812 923.824219 327.734375 C 923.820312 326.460938 923.847656 325.1875 923.917969 323.914062 C 923.984375 322.640625 924.089844 321.371094 924.230469 320.105469 C 924.375 318.839844 924.550781 317.578125 924.765625 316.320312 C 924.984375 315.066406 925.234375 313.816406 925.523438 312.574219 C 925.8125 311.335938 926.136719 310.101562 926.496094 308.878906 C 926.855469 307.65625 927.253906 306.445312 927.683594 305.246094 C 928.113281 304.046875 928.578125 302.863281 929.082031 301.691406 C 929.582031 300.519531 930.113281 299.363281 930.683594 298.222656 C 931.25 297.078125 931.851562 295.957031 932.484375 294.851562 C 933.117188 293.746094 933.78125 292.660156 934.480469 291.589844 C 935.175781 290.523438 935.902344 289.476562 936.660156 288.453125 C 937.417969 287.429688 938.207031 286.425781 939.023438 285.449219 C 939.839844 284.46875 940.683594 283.515625 941.554688 282.585938 C 942.425781 281.65625 943.324219 280.753906 944.25 279.878906 C 945.175781 279 946.125 278.152344 947.097656 277.332031 C 948.074219 276.507812 949.070312 275.714844 950.089844 274.953125 C 951.113281 274.191406 952.15625 273.457031 953.21875 272.753906 C 954.28125 272.054688 955.363281 271.382812 956.464844 270.742188 C 957.570312 270.105469 958.691406 269.496094 959.828125 268.925781 C 960.964844 268.351562 962.121094 267.808594 963.289062 267.304688 C 964.457031 266.796875 965.640625 266.324219 966.839844 265.886719 C 968.035156 265.449219 969.246094 265.050781 970.464844 264.683594 C 971.683594 264.316406 972.914062 263.984375 974.15625 263.691406 C 975.394531 263.394531 976.644531 263.136719 977.898438 262.914062 C 979.152344 262.691406 980.414062 262.507812 981.679688 262.359375 C 982.945312 262.210938 984.214844 262.097656 985.484375 262.023438 C 986.757812 261.949219 988.03125 261.914062 989.304688 261.914062 C 990.578125 261.914062 991.851562 261.949219 993.125 262.023438 C 994.398438 262.097656 995.667969 262.210938 996.933594 262.359375 C 998.199219 262.507812 999.457031 262.691406 1000.714844 262.914062 C 1001.96875 263.136719 1003.214844 263.394531 1004.457031 263.691406 C 1005.695312 263.984375 1006.925781 264.316406 1008.144531 264.683594 C 1009.367188 265.050781 1010.574219 265.449219 1011.773438 265.886719 C 1012.96875 266.324219 1014.152344 266.796875 1015.320312 267.304688 C 1016.492188 267.808594 1017.644531 268.351562 1018.78125 268.925781 C 1019.921875 269.496094 1021.042969 270.105469 1022.144531 270.742188 C 1023.246094 271.382812 1024.328125 272.054688 1025.394531 272.753906 C 1026.457031 273.457031 1027.5 274.191406 1028.519531 274.953125 C 1029.539062 275.714844 1030.535156 276.507812 1031.511719 277.332031 C 1032.484375 278.152344 1033.433594 279 1034.359375 279.878906 C 1035.285156 280.753906 1036.183594 281.65625 1037.054688 282.585938 C 1037.925781 283.515625 1038.773438 284.46875 1039.585938 285.449219 C 1040.402344 286.425781 1041.191406 287.429688 1041.949219 288.453125 C 1042.707031 289.476562 1043.433594 290.523438 1044.132812 291.589844 C 1044.828125 292.660156 1045.492188 293.746094 1046.125 294.851562 C 1046.761719 295.957031 1047.359375 297.078125 1047.929688 298.222656 C 1048.496094 299.363281 1049.03125 300.519531 1049.53125 301.691406 C 1050.03125 302.863281 1050.496094 304.046875 1050.925781 305.246094 C 1051.359375 306.445312 1051.753906 307.65625 1052.113281 308.878906 C 1052.476562 310.101562 1052.800781 311.335938 1053.085938 312.574219 C 1053.375 313.816406 1053.628906 315.066406 1053.84375 316.320312 C 1054.058594 317.578125 1054.238281 318.839844 1054.378906 320.105469 C 1054.519531 321.371094 1054.625 322.640625 1054.695312 323.914062 C 1054.761719 325.1875 1054.792969 326.460938 1054.785156 327.734375 C 1054.777344 329.007812 1054.734375 330.28125 1054.652344 331.554688 C 1054.574219 332.824219 1054.457031 334.09375 1054.300781 335.359375 C 1054.144531 336.625 1053.953125 337.882812 1053.726562 339.136719 C 1053.496094 340.390625 1053.230469 341.636719 1052.929688 342.875 C 1052.628906 344.113281 1052.292969 345.339844 1051.917969 346.558594 C 1051.546875 347.777344 1051.136719 348.984375 1050.695312 350.179688 C 1050.25 351.375 1049.773438 352.554688 1049.261719 353.722656 C 1048.746094 354.890625 1048.203125 356.039062 1047.621094 357.175781 C 1047.042969 358.308594 1046.429688 359.425781 1045.785156 360.527344 C 1045.140625 361.625 1044.464844 362.707031 1043.757812 363.765625 C 1043.046875 364.824219 1042.308594 365.863281 1041.542969 366.878906 C 1040.773438 367.894531 1039.976562 368.890625 1039.148438 369.859375 C 1038.324219 370.828125 1037.46875 371.773438 1036.585938 372.695312 C 1035.707031 373.617188 1034.796875 374.507812 1033.863281 375.375 C 1032.929688 376.242188 1031.972656 377.082031 1030.988281 377.894531 C 1030.007812 378.707031 1029 379.488281 1027.972656 380.238281 C 1026.945312 380.992188 1025.894531 381.714844 1024.824219 382.40625 C 1023.753906 383.097656 1022.664062 383.757812 1021.554688 384.382812 C 1020.445312 385.011719 1019.316406 385.605469 1018.175781 386.167969 C 1017.03125 386.730469 1015.871094 387.257812 1014.695312 387.753906 C 1013.523438 388.246094 1012.332031 388.707031 1011.132812 389.128906 L 1011.132812 445.445312 C 1011.128906 447.230469 1011.085938 449.015625 1010.996094 450.796875 C 1010.90625 452.582031 1010.773438 454.359375 1010.59375 456.136719 C 1010.417969 457.914062 1010.199219 459.683594 1009.933594 461.453125 C 1009.671875 463.21875 1009.363281 464.976562 1009.015625 466.726562 C 1008.664062 468.476562 1008.273438 470.21875 1007.835938 471.949219 C 1007.402344 473.683594 1006.921875 475.402344 1006.402344 477.109375 C 1005.882812 478.820312 1005.324219 480.511719 1004.722656 482.195312 C 1004.117188 483.875 1003.476562 485.539062 1002.789062 487.1875 C 1002.105469 488.835938 1001.382812 490.46875 1000.617188 492.082031 C 999.851562 493.695312 999.050781 495.289062 998.207031 496.863281 C 997.367188 498.4375 996.484375 499.992188 995.566406 501.523438 C 994.648438 503.054688 993.691406 504.5625 992.699219 506.046875 C 991.707031 507.53125 990.679688 508.988281 989.617188 510.421875 C 988.550781 511.855469 987.453125 513.265625 986.320312 514.644531 C 985.1875 516.023438 984.019531 517.375 982.824219 518.699219 C 981.625 520.023438 980.390625 521.3125 979.128906 522.578125 C 977.867188 523.839844 976.574219 525.070312 975.25 526.269531 C 973.929688 527.46875 972.578125 528.632812 971.195312 529.765625 C 969.816406 530.898438 968.410156 532 966.976562 533.0625 C 965.542969 534.125 964.082031 535.15625 962.597656 536.148438 C 961.113281 537.140625 959.605469 538.09375 958.074219 539.011719 C 956.542969 539.933594 954.992188 540.8125 953.417969 541.65625 C 951.84375 542.496094 950.25 543.300781 948.636719 544.066406 C 947.023438 544.828125 945.390625 545.554688 943.742188 546.238281 C 942.09375 546.921875 940.425781 547.566406 938.746094 548.167969 C 937.066406 548.769531 935.371094 549.332031 933.664062 549.851562 C 931.953125 550.371094 930.234375 550.847656 928.503906 551.285156 C 926.773438 551.71875 925.03125 552.109375 923.28125 552.460938 C 921.527344 552.8125 919.769531 553.117188 918.003906 553.382812 C 916.238281 553.644531 914.46875 553.867188 912.691406 554.042969 C 910.914062 554.21875 909.132812 554.351562 907.351562 554.441406 C 905.566406 554.53125 903.78125 554.578125 901.996094 554.578125 L 654.996094 554.578125 L 654.996094 624.601562 L 901.996094 624.601562 C 903.78125 624.601562 905.566406 624.648438 907.351562 624.738281 C 909.132812 624.828125 910.914062 624.960938 912.691406 625.136719 C 914.46875 625.3125 916.238281 625.535156 918.003906 625.796875 C 919.769531 626.0625 921.527344 626.367188 923.28125 626.71875 C 925.03125 627.070312 926.773438 627.460938 928.503906 627.894531 C 930.234375 628.332031 931.953125 628.808594 933.664062 629.328125 C 935.371094 629.847656 937.066406 630.410156 938.746094 631.011719 C 940.425781 631.613281 942.09375 632.257812 943.742188 632.941406 C 945.390625 633.625 947.023438 634.351562 948.636719 635.113281 C 950.25 635.878906 951.84375 636.683594 953.417969 637.523438 C 954.992188 638.367188 956.542969 639.246094 958.074219 640.167969 C 959.605469 641.085938 961.113281 642.039062 962.597656 643.03125 C 964.082031 644.023438 965.542969 645.054688 966.976562 646.117188 C 968.410156 647.179688 969.816406 648.28125 971.195312 649.414062 C 972.578125 650.546875 973.929688 651.710938 975.25 652.910156 C 976.574219 654.109375 977.867188 655.339844 979.128906 656.601562 C 980.390625 657.867188 981.625 659.15625 982.824219 660.480469 C 984.019531 661.804688 985.1875 663.15625 986.320312 664.535156 C 987.453125 665.914062 988.550781 667.324219 989.617188 668.757812 C 990.679688 670.191406 991.707031 671.648438 992.699219 673.132812 C 993.691406 674.617188 994.648438 676.125 995.566406 677.65625 C 996.484375 679.1875 997.367188 680.742188 998.207031 682.316406 C 999.050781 683.890625 999.851562 685.484375 1000.617188 687.097656 C 1001.382812 688.710938 1002.105469 690.34375 1002.789062 691.992188 C 1003.476562 693.640625 1004.117188 695.304688 1004.722656 696.984375 C 1005.324219 698.667969 1005.882812 700.359375 1006.402344 702.070312 C 1006.921875 703.777344 1007.402344 705.496094 1007.835938 707.230469 C 1008.273438 708.960938 1008.664062 710.703125 1009.015625 712.453125 C 1009.363281 714.203125 1009.671875 715.960938 1009.933594 717.726562 C 1010.199219 719.496094 1010.417969 721.265625 1010.59375 723.042969 C 1010.773438 724.820312 1010.90625 726.597656 1010.996094 728.382812 C 1011.085938 730.164062 1011.128906 731.949219 1011.132812 733.734375 L 1011.132812 790.050781 C 1012.332031 790.472656 1013.523438 790.933594 1014.695312 791.425781 C 1015.871094 791.921875 1017.03125 792.449219 1018.175781 793.011719 C 1019.316406 793.574219 1020.445312 794.167969 1021.554688 794.796875 C 1022.664062 795.421875 1023.753906 796.082031 1024.824219 796.773438 C 1025.894531 797.464844 1026.945312 798.1875 1027.972656 798.941406 C 1029 799.691406 1030.007812 800.472656 1030.988281 801.285156 C 1031.972656 802.097656 1032.929688 802.9375 1033.863281 803.804688 C 1034.796875 804.671875 1035.707031 805.5625 1036.585938 806.484375 C 1037.46875 807.40625 1038.324219 808.347656 1039.148438 809.320312 C 1039.976562 810.289062 1040.773438 811.28125 1041.542969 812.300781 C 1042.308594 813.316406 1043.046875 814.355469 1043.757812 815.414062 C 1044.464844 816.472656 1045.140625 817.554688 1045.785156 818.652344 C 1046.429688 819.753906 1047.042969 820.867188 1047.621094 822.003906 C 1048.203125 823.140625 1048.746094 824.289062 1049.261719 825.457031 C 1049.773438 826.625 1050.25 827.804688 1050.695312 829 C 1051.136719 830.195312 1051.546875 831.402344 1051.917969 832.621094 C 1052.292969 833.835938 1052.628906 835.066406 1052.929688 836.304688 C 1053.230469 837.542969 1053.496094 838.789062 1053.726562 840.042969 C 1053.953125 841.296875 1054.144531 842.554688 1054.300781 843.820312 C 1054.453125 845.085938 1054.574219 846.355469 1054.652344 847.625 C 1054.734375 848.898438 1054.777344 850.171875 1054.785156 851.445312 C 1054.792969 852.71875 1054.761719 853.992188 1054.695312 855.265625 C 1054.625 856.539062 1054.519531 857.808594 1054.378906 859.074219 C 1054.238281 860.339844 1054.058594 861.601562 1053.84375 862.859375 C 1053.628906 864.113281 1053.375 865.363281 1053.085938 866.605469 C 1052.800781 867.84375 1052.476562 869.078125 1052.113281 870.300781 C 1051.753906 871.523438 1051.359375 872.734375 1050.925781 873.933594 C 1050.496094 875.132812 1050.03125 876.316406 1049.53125 877.488281 C 1049.03125 878.660156 1048.496094 879.816406 1047.929688 880.957031 C 1047.359375 882.101562 1046.761719 883.222656 1046.125 884.328125 C 1045.492188 885.433594 1044.828125 886.519531 1044.132812 887.589844 C 1043.433594 888.65625 1042.707031 889.703125 1041.949219 890.726562 C 1041.191406 891.75 1040.402344 892.75 1039.585938 893.730469 C 1038.773438 894.710938 1037.925781 895.664062 1037.054688 896.59375 C 1036.183594 897.523438 1035.285156 898.425781 1034.359375 899.300781 C 1033.433594 900.179688 1032.484375 901.027344 1031.511719 901.847656 C 1030.535156 902.671875 1029.539062 903.464844 1028.519531 904.226562 C 1027.5 904.988281 1026.457031 905.722656 1025.394531 906.425781 C 1024.328125 907.125 1023.246094 907.796875 1022.144531 908.4375 C 1021.042969 909.074219 1019.921875 909.683594 1018.785156 910.253906 C 1017.644531 910.828125 1016.492188 911.371094 1015.320312 911.875 C 1014.152344 912.382812 1012.96875 912.855469 1011.773438 913.292969 C 1010.574219 913.726562 1009.367188 914.128906 1008.144531 914.496094 C 1006.925781 914.863281 1005.695312 915.195312 1004.457031 915.488281 C 1003.214844 915.785156 1001.96875 916.042969 1000.714844 916.265625 C 999.457031 916.488281 998.199219 916.671875 996.933594 916.820312 C 995.667969 916.96875 994.398438 917.078125 993.125 917.15625 C 991.851562 917.230469 990.578125 917.265625 989.304688 917.265625 C 988.03125 917.265625 986.757812 917.230469 985.484375 917.15625 C 984.214844 917.078125 982.945312 916.96875 981.679688 916.820312 C 980.414062 916.671875 979.152344 916.488281 977.898438 916.265625 C 976.644531 916.042969 975.394531 915.785156 974.15625 915.488281 C 972.914062 915.195312 971.683594 914.863281 970.464844 914.496094 C 969.246094 914.128906 968.035156 913.726562 966.839844 913.292969 C 965.640625 912.855469 964.457031 912.382812 963.289062 911.875 C 962.121094 911.371094 960.964844 910.828125 959.828125 910.253906 C 958.691406 909.683594 957.570312 909.074219 956.464844 908.4375 C 955.363281 907.796875 954.28125 907.125 953.21875 906.425781 C 952.15625 905.722656 951.113281 904.988281 950.089844 904.226562 C 949.070312 903.460938 948.074219 902.671875 947.097656 901.847656 C 946.125 901.027344 945.175781 900.179688 944.25 899.300781 C 943.324219 898.425781 942.425781 897.523438 941.554688 896.59375 C 940.683594 895.664062 939.839844 894.710938 939.023438 893.730469 C 938.207031 892.75 937.417969 891.75 936.660156 890.726562 C 935.902344 889.703125 935.175781 888.65625 934.480469 887.589844 C 933.78125 886.519531 933.117188 885.433594 932.484375 884.328125 C 931.851562 883.222656 931.25 882.101562 930.683594 880.957031 C 930.113281 879.816406 929.582031 878.660156 929.082031 877.488281 C 928.578125 876.316406 928.113281 875.132812 927.683594 873.933594 C 927.253906 872.734375 926.855469 871.523438 926.496094 870.300781 C 926.136719 869.078125 925.8125 867.84375 925.523438 866.605469 C 925.234375 865.363281 924.984375 864.113281 924.765625 862.859375 C 924.550781 861.601562 924.375 860.339844 924.230469 859.074219 C 924.089844 857.808594 923.984375 856.539062 923.917969 855.265625 C 923.847656 853.992188 923.820312 852.71875 923.824219 851.445312 C 923.832031 850.171875 923.875 848.898438 923.957031 847.625 C 924.039062 846.355469 924.15625 845.085938 924.3125 843.820312 C 924.464844 842.554688 924.65625 841.296875 924.886719 840.042969 C 925.113281 838.789062 925.378906 837.542969 925.679688 836.304688 C 925.980469 835.066406 926.320312 833.835938 926.691406 832.621094 C 927.066406 831.402344 927.472656 830.195312 927.917969 829 C 928.359375 827.804688 928.839844 826.625 929.351562 825.457031 C 929.863281 824.289062 930.410156 823.140625 930.988281 822.003906 C 931.566406 820.867188 932.179688 819.75 932.824219 818.652344 C 933.46875 817.554688 934.144531 816.472656 934.855469 815.414062 C 935.5625 814.355469 936.300781 813.316406 937.070312 812.300781 C 937.835938 811.28125 938.632812 810.289062 939.460938 809.320312 C 940.289062 808.347656 941.140625 807.40625 942.023438 806.484375 C 942.90625 805.5625 943.8125 804.671875 944.746094 803.804688 C 945.679688 802.9375 946.636719 802.097656 947.621094 801.285156 C 948.605469 800.472656 949.609375 799.691406 950.636719 798.941406 C 951.667969 798.1875 952.714844 797.464844 953.785156 796.773438 C 954.859375 796.082031 955.949219 795.421875 957.058594 794.796875 C 958.164062 794.167969 959.292969 793.574219 960.4375 793.011719 C 961.578125 792.449219 962.738281 791.921875 963.914062 791.425781 C 965.089844 790.933594 966.277344 790.472656 967.476562 790.050781 L 967.476562 733.734375 C 967.476562 732.664062 967.449219 731.59375 967.394531 730.523438 C 967.34375 729.453125 967.261719 728.386719 967.15625 727.320312 C 967.050781 726.253906 966.917969 725.191406 966.761719 724.128906 C 966.601562 723.070312 966.417969 722.015625 966.207031 720.964844 C 966 719.914062 965.761719 718.871094 965.5 717.832031 C 965.242188 716.792969 964.953125 715.761719 964.640625 714.734375 C 964.332031 713.710938 963.996094 712.691406 963.632812 711.683594 C 963.269531 710.675781 962.886719 709.675781 962.476562 708.6875 C 962.0625 707.699219 961.628906 706.71875 961.171875 705.75 C 960.710938 704.78125 960.230469 703.828125 959.726562 702.882812 C 959.21875 701.9375 958.691406 701.003906 958.140625 700.085938 C 957.589844 699.167969 957.015625 698.261719 956.421875 697.371094 C 955.824219 696.480469 955.207031 695.605469 954.570312 694.746094 C 953.929688 693.886719 953.273438 693.042969 952.59375 692.214844 C 951.914062 691.386719 951.214844 690.574219 950.492188 689.78125 C 949.773438 688.988281 949.035156 688.210938 948.277344 687.453125 C 947.519531 686.695312 946.746094 685.957031 945.953125 685.238281 C 945.15625 684.519531 944.347656 683.820312 943.519531 683.140625 C 942.691406 682.460938 941.847656 681.800781 940.984375 681.164062 C 940.125 680.523438 939.25 679.90625 938.359375 679.3125 C 937.46875 678.714844 936.5625 678.144531 935.644531 677.59375 C 934.726562 677.039062 933.796875 676.511719 932.851562 676.007812 C 931.90625 675.5 930.949219 675.019531 929.980469 674.5625 C 929.011719 674.101562 928.035156 673.667969 927.042969 673.257812 C 926.054688 672.847656 925.054688 672.460938 924.046875 672.097656 C 923.039062 671.738281 922.023438 671.402344 920.996094 671.089844 C 919.972656 670.777344 918.941406 670.492188 917.902344 670.230469 C 916.863281 669.96875 915.816406 669.734375 914.765625 669.523438 C 913.714844 669.3125 912.660156 669.128906 911.601562 668.972656 C 910.542969 668.8125 909.480469 668.683594 908.414062 668.574219 C 907.347656 668.46875 906.277344 668.390625 905.210938 668.335938 C 904.140625 668.28125 903.070312 668.253906 901.996094 668.253906 L 654.996094 668.253906 L 654.996094 742.378906 L 749.335938 742.378906 C 751.121094 742.382812 752.90625 742.425781 754.691406 742.515625 C 756.472656 742.605469 758.253906 742.738281 760.03125 742.914062 C 761.808594 743.09375 763.578125 743.3125 765.34375 743.578125 C 767.109375 743.839844 768.867188 744.148438 770.621094 744.496094 C 772.371094 744.847656 774.113281 745.238281 775.84375 745.675781 C 777.574219 746.109375 779.292969 746.585938 781.003906 747.105469 C 782.710938 747.625 784.40625 748.1875 786.085938 748.789062 C 787.765625 749.394531 789.433594 750.035156 791.082031 750.71875 C 792.730469 751.40625 794.363281 752.128906 795.976562 752.894531 C 797.589844 753.65625 799.183594 754.460938 800.757812 755.304688 C 802.332031 756.144531 803.882812 757.027344 805.414062 757.945312 C 806.945312 758.863281 808.453125 759.820312 809.9375 760.8125 C 811.421875 761.804688 812.882812 762.832031 814.316406 763.894531 C 815.75 764.960938 817.15625 766.058594 818.535156 767.191406 C 819.917969 768.324219 821.269531 769.488281 822.589844 770.6875 C 823.914062 771.886719 825.207031 773.117188 826.46875 774.382812 C 827.730469 775.644531 828.964844 776.9375 830.164062 778.257812 C 831.363281 779.582031 832.527344 780.933594 833.660156 782.3125 C 834.792969 783.695312 835.890625 785.101562 836.957031 786.535156 C 838.019531 787.96875 839.046875 789.429688 840.039062 790.910156 C 841.03125 792.394531 841.988281 793.902344 842.90625 795.433594 C 843.824219 796.964844 844.707031 798.519531 845.546875 800.09375 C 846.390625 801.667969 847.195312 803.261719 847.957031 804.875 C 848.722656 806.488281 849.445312 808.121094 850.128906 809.769531 C 850.816406 811.417969 851.457031 813.082031 852.0625 814.765625 C 852.664062 816.445312 853.222656 818.140625 853.742188 819.847656 C 854.261719 821.554688 854.742188 823.277344 855.175781 825.007812 C 855.613281 826.738281 856.003906 828.480469 856.355469 830.230469 C 856.703125 831.980469 857.011719 833.742188 857.273438 835.507812 C 857.539062 837.273438 857.757812 839.042969 857.933594 840.820312 C 858.113281 842.597656 858.246094 844.378906 858.335938 846.160156 C 858.425781 847.945312 858.46875 849.726562 858.472656 851.515625 L 858.472656 907.828125 C 859.671875 908.253906 860.863281 908.710938 862.035156 909.207031 C 863.210938 909.699219 864.371094 910.226562 865.515625 910.789062 C 866.65625 911.351562 867.785156 911.945312 868.894531 912.574219 C 870.003906 913.203125 871.09375 913.859375 872.164062 914.550781 C 873.234375 915.242188 874.285156 915.964844 875.3125 916.71875 C 876.339844 917.46875 877.347656 918.253906 878.328125 919.0625 C 879.3125 919.875 880.269531 920.714844 881.203125 921.582031 C 882.136719 922.449219 883.046875 923.34375 883.925781 924.261719 C 884.808594 925.183594 885.664062 926.128906 886.488281 927.097656 C 887.316406 928.066406 888.113281 929.0625 888.882812 930.078125 C 889.648438 931.09375 890.386719 932.132812 891.097656 933.191406 C 891.804688 934.253906 892.480469 935.332031 893.125 936.429688 C 893.769531 937.53125 894.382812 938.648438 894.960938 939.78125 C 895.542969 940.917969 896.085938 942.070312 896.601562 943.234375 C 897.113281 944.402344 897.589844 945.582031 898.035156 946.777344 C 898.476562 947.972656 898.886719 949.179688 899.257812 950.398438 C 899.632812 951.617188 899.96875 952.84375 900.269531 954.082031 C 900.570312 955.320312 900.835938 956.566406 901.066406 957.820312 C 901.292969 959.074219 901.484375 960.335938 901.640625 961.597656 C 901.796875 962.863281 901.914062 964.132812 901.992188 965.402344 C 902.074219 966.675781 902.117188 967.949219 902.125 969.222656 C 902.132812 970.496094 902.101562 971.769531 902.035156 973.042969 C 901.964844 974.316406 901.859375 975.585938 901.71875 976.851562 C 901.578125 978.117188 901.398438 979.378906 901.183594 980.636719 C 900.96875 981.890625 900.714844 983.140625 900.425781 984.382812 C 900.140625 985.625 899.8125 986.855469 899.453125 988.078125 C 899.09375 989.300781 898.699219 990.511719 898.265625 991.710938 C 897.835938 992.910156 897.371094 994.09375 896.871094 995.269531 C 896.371094 996.441406 895.835938 997.597656 895.269531 998.738281 C 894.699219 999.878906 894.097656 1001 893.464844 1002.109375 C 892.832031 1003.214844 892.167969 1004.300781 891.472656 1005.367188 C 890.773438 1006.433594 890.046875 1007.480469 889.289062 1008.503906 C 888.53125 1009.527344 887.742188 1010.53125 886.925781 1011.507812 C 886.109375 1012.488281 885.265625 1013.441406 884.394531 1014.371094 C 883.523438 1015.300781 882.625 1016.203125 881.699219 1017.082031 C 880.773438 1017.957031 879.824219 1018.804688 878.851562 1019.628906 C 877.875 1020.449219 876.878906 1021.242188 875.859375 1022.003906 C 874.839844 1022.769531 873.796875 1023.5 872.734375 1024.203125 C 871.667969 1024.90625 870.585938 1025.574219 869.484375 1026.214844 C 868.382812 1026.855469 867.261719 1027.460938 866.121094 1028.035156 C 864.984375 1028.609375 863.832031 1029.148438 862.660156 1029.652344 C 861.492188 1030.160156 860.308594 1030.632812 859.113281 1031.070312 C 857.914062 1031.507812 856.707031 1031.910156 855.484375 1032.277344 C 854.265625 1032.640625 853.035156 1032.972656 851.796875 1033.269531 C 850.554688 1033.5625 849.308594 1033.820312 848.054688 1034.042969 C 846.796875 1034.265625 845.539062 1034.449219 844.273438 1034.597656 C 843.007812 1034.746094 841.738281 1034.859375 840.464844 1034.933594 C 839.191406 1035.007812 837.917969 1035.042969 836.644531 1035.042969 C 835.371094 1035.042969 834.097656 1035.007812 832.824219 1034.933594 C 831.554688 1034.859375 830.285156 1034.746094 829.019531 1034.597656 C 827.753906 1034.449219 826.492188 1034.265625 825.238281 1034.042969 C 823.980469 1033.820312 822.734375 1033.5625 821.496094 1033.269531 C 820.253906 1032.972656 819.023438 1032.640625 817.804688 1032.277344 C 816.585938 1031.910156 815.375 1031.507812 814.179688 1031.070312 C 812.980469 1030.632812 811.796875 1030.160156 810.628906 1029.652344 C 809.460938 1029.148438 808.304688 1028.609375 807.167969 1028.035156 C 806.03125 1027.460938 804.910156 1026.855469 803.804688 1026.214844 C 802.703125 1025.574219 801.621094 1024.90625 800.558594 1024.203125 C 799.496094 1023.5 798.453125 1022.769531 797.429688 1022.003906 C 796.410156 1021.242188 795.414062 1020.449219 794.4375 1019.628906 C 793.464844 1018.804688 792.515625 1017.957031 791.589844 1017.082031 C 790.664062 1016.203125 789.765625 1015.300781 788.894531 1014.371094 C 788.023438 1013.441406 787.179688 1012.488281 786.363281 1011.507812 C 785.546875 1010.53125 784.757812 1009.527344 784 1008.503906 C 783.242188 1007.480469 782.515625 1006.433594 781.820312 1005.367188 C 781.121094 1004.300781 780.457031 1003.214844 779.824219 1002.109375 C 779.191406 1001 778.589844 999.878906 778.023438 998.738281 C 777.453125 997.597656 776.921875 996.441406 776.421875 995.269531 C 775.917969 994.097656 775.453125 992.910156 775.023438 991.710938 C 774.59375 990.511719 774.195312 989.300781 773.835938 988.078125 C 773.476562 986.855469 773.152344 985.625 772.863281 984.382812 C 772.574219 983.140625 772.324219 981.894531 772.105469 980.636719 C 771.890625 979.378906 771.710938 978.121094 771.570312 976.851562 C 771.429688 975.585938 771.324219 974.316406 771.257812 973.042969 C 771.1875 971.769531 771.160156 970.496094 771.164062 969.222656 C 771.171875 967.949219 771.214844 966.675781 771.296875 965.402344 C 771.378906 964.132812 771.496094 962.863281 771.648438 961.597656 C 771.804688 960.335938 771.996094 959.074219 772.226562 957.820312 C 772.453125 956.566406 772.71875 955.320312 773.019531 954.082031 C 773.320312 952.84375 773.660156 951.617188 774.03125 950.398438 C 774.40625 949.179688 774.8125 947.972656 775.257812 946.777344 C 775.699219 945.582031 776.179688 944.402344 776.691406 943.234375 C 777.203125 942.070312 777.75 940.917969 778.328125 939.78125 C 778.90625 938.648438 779.519531 937.53125 780.164062 936.429688 C 780.808594 935.332031 781.484375 934.253906 782.195312 933.191406 C 782.902344 932.132812 783.640625 931.09375 784.410156 930.078125 C 785.175781 929.0625 785.972656 928.066406 786.800781 927.097656 C 787.628906 926.128906 788.480469 925.183594 789.363281 924.261719 C 790.246094 923.34375 791.152344 922.449219 792.085938 921.582031 C 793.019531 920.714844 793.976562 919.875 794.960938 919.0625 C 795.945312 918.253906 796.949219 917.46875 797.976562 916.71875 C 799.007812 915.964844 800.054688 915.242188 801.125 914.550781 C 802.199219 913.859375 803.289062 913.203125 804.398438 912.574219 C 805.503906 911.945312 806.632812 911.351562 807.777344 910.789062 C 808.917969 910.226562 810.078125 909.699219 811.253906 909.207031 C 812.429688 908.710938 813.617188 908.253906 814.816406 907.828125 L 814.816406 851.515625 C 814.816406 850.441406 814.789062 849.371094 814.734375 848.300781 C 814.683594 847.230469 814.601562 846.164062 814.496094 845.097656 C 814.390625 844.03125 814.257812 842.96875 814.101562 841.910156 C 813.941406 840.851562 813.757812 839.792969 813.546875 838.742188 C 813.339844 837.695312 813.101562 836.648438 812.839844 835.609375 C 812.582031 834.570312 812.292969 833.539062 811.980469 832.511719 C 811.671875 831.488281 811.332031 830.472656 810.972656 829.464844 C 810.609375 828.453125 810.226562 827.457031 809.816406 826.464844 C 809.402344 825.476562 808.96875 824.496094 808.511719 823.53125 C 808.050781 822.5625 807.570312 821.605469 807.066406 820.660156 C 806.558594 819.714844 806.03125 818.785156 805.480469 817.867188 C 804.929688 816.945312 804.355469 816.042969 803.761719 815.152344 C 803.164062 814.261719 802.546875 813.386719 801.910156 812.523438 C 801.269531 811.664062 800.613281 810.820312 799.933594 809.992188 C 799.253906 809.164062 798.554688 808.351562 797.832031 807.558594 C 797.113281 806.765625 796.375 805.992188 795.617188 805.234375 C 794.859375 804.476562 794.085938 803.738281 793.292969 803.015625 C 792.496094 802.296875 791.6875 801.597656 790.859375 800.917969 C 790.03125 800.238281 789.1875 799.578125 788.324219 798.941406 C 787.464844 798.300781 786.589844 797.6875 785.699219 797.089844 C 784.808594 796.496094 783.902344 795.921875 782.984375 795.371094 C 782.066406 794.820312 781.136719 794.292969 780.191406 793.785156 C 779.246094 793.28125 778.289062 792.796875 777.320312 792.339844 C 776.351562 791.882812 775.375 791.445312 774.382812 791.035156 C 773.394531 790.625 772.394531 790.238281 771.386719 789.878906 C 770.378906 789.515625 769.363281 789.179688 768.335938 788.867188 C 767.3125 788.558594 766.28125 788.269531 765.242188 788.007812 C 764.203125 787.75 763.15625 787.511719 762.105469 787.304688 C 761.054688 787.09375 760 786.910156 758.941406 786.75 C 757.882812 786.59375 756.820312 786.460938 755.753906 786.355469 C 754.6875 786.25 753.617188 786.167969 752.550781 786.113281 C 751.480469 786.0625 750.410156 786.035156 749.335938 786.03125 L 654.996094 786.03125 L 654.996094 1096.789062 C 659.050781 1102.023438 663.367188 1107.023438 667.953125 1111.796875 C 672.535156 1116.574219 677.359375 1121.09375 682.417969 1125.355469 C 687.480469 1129.621094 692.753906 1133.605469 698.238281 1137.3125 C 703.722656 1141.019531 709.382812 1144.425781 715.226562 1147.53125 C 721.070312 1150.640625 727.0625 1153.429688 733.203125 1155.902344 C 739.339844 1158.378906 745.59375 1160.519531 751.957031 1162.332031 C 758.324219 1164.144531 764.765625 1165.617188 771.289062 1166.746094 C 777.808594 1167.875 784.371094 1168.660156 790.976562 1169.097656 C 794.984375 1169.339844 798.96875 1169.460938 802.933594 1169.457031 C 808.933594 1169.476562 814.921875 1169.207031 820.894531 1168.65625 C 826.871094 1168.105469 832.804688 1167.273438 838.699219 1166.160156 C 844.59375 1165.042969 850.425781 1163.652344 856.1875 1161.984375 C 861.949219 1160.316406 867.621094 1158.378906 873.203125 1156.175781 C 878.78125 1153.96875 884.242188 1151.503906 889.589844 1148.777344 C 894.933594 1146.054688 900.140625 1143.082031 905.203125 1139.863281 C 910.265625 1136.644531 915.167969 1133.195312 919.902344 1129.511719 C 924.636719 1125.828125 929.1875 1121.925781 933.554688 1117.8125 C 937.667969 1113.949219 941.605469 1109.910156 945.363281 1105.699219 C 949.121094 1101.488281 952.683594 1097.121094 956.058594 1092.597656 C 959.433594 1088.074219 962.601562 1083.410156 965.5625 1078.605469 C 968.527344 1073.800781 971.273438 1068.878906 973.800781 1063.832031 C 976.332031 1058.789062 978.636719 1053.640625 980.710938 1048.394531 C 982.789062 1043.144531 984.632812 1037.816406 986.238281 1032.40625 C 987.847656 1027 989.214844 1021.527344 990.339844 1015.996094 C 991.464844 1010.46875 992.347656 1004.898438 992.984375 999.292969 C 995.882812 998.960938 998.777344 998.566406 1001.660156 998.105469 C 1004.542969 997.644531 1007.414062 997.121094 1010.277344 996.527344 C 1013.136719 995.9375 1015.980469 995.28125 1018.808594 994.5625 C 1021.640625 993.839844 1024.453125 993.054688 1027.246094 992.207031 C 1030.039062 991.359375 1032.8125 990.445312 1035.566406 989.472656 C 1038.316406 988.496094 1041.046875 987.460938 1043.753906 986.359375 C 1046.457031 985.261719 1049.136719 984.101562 1051.789062 982.878906 C 1054.441406 981.660156 1057.066406 980.378906 1059.660156 979.039062 C 1062.253906 977.695312 1064.816406 976.296875 1067.347656 974.839844 C 1069.878906 973.382812 1072.375 971.871094 1074.835938 970.300781 C 1077.296875 968.730469 1079.722656 967.101562 1082.109375 965.421875 C 1084.496094 963.742188 1086.847656 962.007812 1089.15625 960.21875 C 1091.464844 958.429688 1093.730469 956.589844 1095.957031 954.699219 C 1098.179688 952.808594 1100.359375 950.867188 1102.496094 948.878906 C 1104.636719 946.886719 1106.726562 944.847656 1108.769531 942.761719 C 1110.8125 940.675781 1112.808594 938.546875 1114.753906 936.371094 C 1116.703125 934.195312 1118.597656 931.972656 1120.445312 929.710938 C 1122.289062 927.449219 1124.085938 925.144531 1125.824219 922.800781 C 1127.566406 920.457031 1129.253906 918.074219 1130.886719 915.652344 C 1132.519531 913.230469 1134.09375 910.773438 1135.617188 908.28125 C 1137.136719 905.789062 1138.601562 903.261719 1140.007812 900.703125 C 1141.414062 898.144531 1142.757812 895.554688 1144.046875 892.933594 C 1145.335938 890.3125 1146.5625 887.664062 1147.730469 884.988281 C 1148.898438 882.3125 1150.003906 879.609375 1151.046875 876.882812 C 1152.09375 874.15625 1153.074219 871.40625 1153.992188 868.632812 C 1154.914062 865.863281 1155.769531 863.070312 1156.5625 860.261719 C 1157.355469 857.449219 1158.082031 854.625 1158.746094 851.78125 C 1159.410156 848.9375 1160.007812 846.078125 1160.542969 843.207031 C 1161.074219 840.335938 1161.542969 837.453125 1161.945312 834.5625 C 1162.347656 831.671875 1162.683594 828.769531 1162.953125 825.863281 C 1163.226562 822.957031 1163.429688 820.042969 1163.566406 817.125 C 1163.707031 814.210938 1163.777344 811.289062 1163.78125 808.371094 C 1163.773438 807.535156 1163.722656 806.703125 1163.632812 805.875 C 1163.160156 801.953125 1162.914062 798.019531 1162.890625 794.070312 C 1162.863281 790.121094 1163.0625 786.183594 1163.480469 782.253906 C 1163.902344 778.328125 1164.539062 774.4375 1165.398438 770.582031 C 1166.257812 766.726562 1167.332031 762.933594 1168.617188 759.199219 C 1169.90625 755.464844 1171.398438 751.816406 1173.097656 748.253906 C 1174.796875 744.6875 1176.6875 741.230469 1178.777344 737.878906 C 1180.867188 734.527344 1183.140625 731.304688 1185.59375 728.207031 C 1188.046875 725.113281 1190.664062 722.164062 1193.449219 719.367188 C 1197.5 715.003906 1201.335938 710.464844 1204.957031 705.742188 C 1208.582031 701.023438 1211.972656 696.144531 1215.140625 691.105469 C 1218.304688 686.066406 1221.226562 680.890625 1223.90625 675.578125 C 1226.589844 670.265625 1229.015625 664.839844 1231.1875 659.300781 C 1233.359375 653.757812 1235.265625 648.128906 1236.910156 642.410156 C 1238.554688 636.691406 1239.925781 630.910156 1241.027344 625.0625 C 1242.128906 619.214844 1242.957031 613.328125 1243.507812 607.402344 C 1244.058594 601.476562 1244.328125 595.539062 1244.324219 589.589844 Z M 1244.324219 589.589844 " fill-opacity="1" fill-rule="nonzero"/><path fill="#ffdb6e" d="M 475.433594 10.097656 C 469.066406 9.671875 462.695312 9.570312 456.316406 9.789062 C 449.941406 10.011719 443.589844 10.554688 437.269531 11.417969 C 430.949219 12.28125 424.6875 13.464844 418.484375 14.964844 C 412.28125 16.464844 406.171875 18.273438 400.152344 20.390625 C 394.132812 22.511719 388.238281 24.929688 382.464844 27.644531 C 376.691406 30.363281 371.070312 33.363281 365.601562 36.648438 C 360.132812 39.9375 354.84375 43.492188 349.734375 47.3125 C 344.625 51.136719 339.722656 55.207031 335.027344 59.527344 C 329.535156 64.597656 324.34375 69.96875 319.464844 75.628906 C 314.582031 81.292969 310.035156 87.21875 305.832031 93.398438 C 301.625 99.582031 297.785156 105.984375 294.308594 112.601562 C 290.832031 119.222656 287.746094 126.019531 285.042969 132.992188 C 287.429688 141 290.332031 148.808594 293.757812 156.429688 C 297.179688 164.046875 301.09375 171.40625 305.5 178.503906 C 309.902344 185.601562 314.757812 192.375 320.0625 198.824219 C 325.367188 205.277344 331.078125 211.347656 337.191406 217.039062 C 341.761719 220.714844 346.515625 224.132812 351.453125 227.300781 C 356.394531 230.464844 361.484375 233.355469 366.734375 235.972656 C 371.984375 238.589844 377.359375 240.917969 382.855469 242.957031 C 388.355469 244.992188 393.949219 246.730469 399.632812 248.167969 C 405.320312 249.605469 411.066406 250.734375 416.875 251.554688 C 422.683594 252.375 428.515625 252.878906 434.378906 253.070312 C 440.242188 253.261719 446.097656 253.136719 451.945312 252.699219 C 457.792969 252.261719 463.601562 251.511719 469.367188 250.449219 C 470.078125 250.363281 470.792969 250.316406 471.507812 250.300781 C 472.222656 250.289062 472.933594 250.308594 473.648438 250.367188 C 474.359375 250.421875 475.066406 250.511719 475.773438 250.640625 C 476.476562 250.765625 477.171875 250.925781 477.859375 251.121094 C 478.546875 251.3125 479.222656 251.542969 479.890625 251.800781 C 480.554688 252.0625 481.207031 252.355469 481.84375 252.679688 C 482.480469 253.003906 483.101562 253.359375 483.703125 253.746094 C 484.304688 254.132812 484.886719 254.546875 485.445312 254.988281 C 486.007812 255.433594 486.546875 255.902344 487.0625 256.398438 C 487.578125 256.894531 488.066406 257.414062 488.53125 257.957031 C 488.996094 258.5 489.429688 259.066406 489.839844 259.652344 C 490.25 260.238281 490.628906 260.84375 490.976562 261.46875 C 491.324219 262.089844 491.644531 262.730469 491.929688 263.386719 C 492.214844 264.042969 492.46875 264.707031 492.691406 265.390625 C 492.910156 266.070312 493.097656 266.757812 493.25 267.457031 C 493.402344 268.15625 493.523438 268.859375 493.605469 269.570312 C 493.6875 270.277344 493.738281 270.992188 493.753906 271.707031 C 493.765625 272.421875 493.746094 273.132812 493.6875 273.847656 C 493.632812 274.558594 493.539062 275.269531 493.414062 275.972656 C 493.289062 276.675781 493.128906 277.371094 492.933594 278.058594 C 492.738281 278.746094 492.511719 279.425781 492.25 280.089844 C 491.992188 280.757812 491.699219 281.40625 491.375 282.042969 C 491.046875 282.679688 490.691406 283.300781 490.308594 283.902344 C 489.921875 284.503906 489.507812 285.085938 489.066406 285.648438 C 488.621094 286.207031 488.152344 286.746094 487.65625 287.261719 C 487.160156 287.777344 486.640625 288.265625 486.097656 288.730469 C 485.554688 289.195312 484.988281 289.632812 484.402344 290.039062 C 483.816406 290.449219 483.210938 290.828125 482.585938 291.175781 C 481.960938 291.527344 481.324219 291.84375 480.667969 292.128906 C 480.011719 292.414062 479.34375 292.667969 478.664062 292.890625 C 477.984375 293.109375 477.296875 293.296875 476.597656 293.449219 C 475.898438 293.605469 475.195312 293.722656 474.484375 293.804688 C 463 295.1875 451.476562 295.890625 439.910156 295.914062 C 433.964844 296.101562 428.023438 296.015625 422.082031 295.65625 C 416.144531 295.296875 410.234375 294.660156 404.355469 293.757812 C 398.472656 292.851562 392.648438 291.675781 386.875 290.230469 C 381.105469 288.789062 375.410156 287.082031 369.796875 285.113281 C 364.183594 283.144531 358.671875 280.921875 353.261719 278.441406 C 347.851562 275.964844 342.570312 273.246094 337.410156 270.277344 C 332.253906 267.3125 327.242188 264.117188 322.378906 260.691406 C 317.515625 257.261719 312.820312 253.617188 308.292969 249.757812 C 297.820312 240.367188 288.371094 230.042969 279.953125 218.773438 C 271.53125 207.507812 264.304688 195.523438 258.265625 182.816406 C 255.558594 183.335938 252.867188 183.914062 250.183594 184.550781 C 247.503906 185.183594 244.835938 185.878906 242.183594 186.628906 C 239.535156 187.378906 236.898438 188.1875 234.28125 189.050781 C 231.664062 189.914062 229.070312 190.832031 226.492188 191.808594 C 223.914062 192.785156 221.359375 193.816406 218.824219 194.902344 C 216.292969 195.988281 213.785156 197.128906 211.300781 198.320312 C 208.816406 199.515625 206.359375 200.761719 203.929688 202.0625 C 201.5 203.363281 199.097656 204.714844 196.726562 206.117188 C 194.355469 207.519531 192.015625 208.972656 189.707031 210.476562 C 187.398438 211.980469 185.121094 213.535156 182.878906 215.136719 C 180.636719 216.738281 178.429688 218.386719 176.257812 220.085938 C 174.089844 221.78125 171.953125 223.527344 169.859375 225.316406 C 167.761719 227.105469 165.707031 228.9375 163.6875 230.816406 C 161.671875 232.695312 159.695312 234.613281 157.761719 236.578125 C 155.828125 238.539062 153.9375 240.542969 152.089844 242.585938 C 150.242188 244.632812 148.4375 246.714844 146.679688 248.835938 C 144.921875 250.960938 143.210938 253.117188 141.542969 255.3125 C 139.878906 257.507812 138.261719 259.738281 136.691406 262.003906 C 135.125 264.269531 133.605469 266.570312 132.132812 268.898438 C 130.664062 271.230469 129.246094 273.59375 127.875 275.984375 C 126.507812 278.378906 125.191406 280.796875 123.925781 283.246094 C 122.664062 285.695312 121.453125 288.171875 120.296875 290.671875 C 119.136719 293.171875 118.035156 295.695312 116.988281 298.246094 C 115.9375 300.792969 114.945312 303.363281 114.007812 305.953125 C 113.070312 308.546875 112.1875 311.15625 111.363281 313.785156 C 110.535156 316.414062 109.769531 319.0625 109.054688 321.722656 C 108.34375 324.386719 107.691406 327.0625 107.09375 329.753906 C 106.5 332.441406 105.960938 335.144531 105.480469 337.859375 C 105 340.574219 104.582031 343.296875 104.21875 346.027344 C 103.855469 348.757812 103.550781 351.496094 103.308594 354.242188 C 103.0625 356.988281 102.878906 359.738281 102.753906 362.488281 C 102.625 365.242188 102.558594 367.996094 102.554688 370.753906 C 103.105469 374.773438 103.425781 378.808594 103.515625 382.867188 C 103.605469 386.921875 103.464844 390.96875 103.089844 395.011719 C 102.714844 399.050781 102.109375 403.054688 101.277344 407.027344 C 100.441406 410.996094 99.386719 414.90625 98.101562 418.753906 C 96.820312 422.605469 95.324219 426.367188 93.609375 430.046875 C 91.894531 433.722656 89.980469 437.289062 87.855469 440.75 C 85.734375 444.207031 83.421875 447.53125 80.917969 450.722656 C 78.414062 453.917969 75.734375 456.957031 72.882812 459.839844 C 70.859375 462.027344 68.890625 464.253906 66.96875 466.53125 C 65.050781 468.808594 63.1875 471.128906 61.375 473.492188 C 59.5625 475.855469 57.808594 478.261719 56.113281 480.707031 C 54.414062 483.152344 52.773438 485.636719 51.191406 488.15625 C 49.609375 490.679688 48.085938 493.238281 46.625 495.832031 C 45.164062 498.425781 43.761719 501.050781 42.421875 503.710938 C 41.082031 506.367188 39.808594 509.058594 38.59375 511.777344 C 37.378906 514.496094 36.230469 517.242188 35.144531 520.015625 C 34.058594 522.785156 33.039062 525.582031 32.085938 528.402344 C 31.132812 531.222656 30.242188 534.0625 29.421875 536.925781 C 28.601562 539.789062 27.847656 542.667969 27.160156 545.5625 C 26.472656 548.460938 25.855469 551.371094 25.304688 554.300781 C 24.753906 557.226562 24.269531 560.164062 23.859375 563.109375 C 23.445312 566.058594 23.101562 569.015625 22.824219 571.980469 C 22.550781 574.945312 22.347656 577.914062 22.210938 580.890625 C 22.074219 583.863281 22.007812 586.839844 22.011719 589.816406 C 22.015625 592.792969 22.085938 595.769531 22.230469 598.742188 C 22.371094 601.71875 22.585938 604.6875 22.867188 607.648438 C 23.148438 610.613281 23.496094 613.570312 23.917969 616.519531 C 24.335938 619.464844 24.824219 622.402344 25.382812 625.328125 C 25.9375 628.25 26.5625 631.160156 27.257812 634.058594 C 27.949219 636.953125 28.710938 639.832031 29.539062 642.691406 C 30.367188 645.550781 31.261719 648.390625 32.222656 651.207031 C 33.179688 654.027344 34.207031 656.820312 35.296875 659.589844 C 36.390625 662.359375 37.546875 665.101562 38.765625 667.820312 C 39.984375 670.535156 41.265625 673.222656 42.613281 675.878906 C 43.957031 678.535156 45.363281 681.15625 46.832031 683.746094 C 48.300781 686.335938 49.828125 688.890625 51.414062 691.410156 C 53.003906 693.929688 54.648438 696.410156 56.351562 698.851562 C 58.054688 701.292969 59.816406 703.695312 61.632812 706.054688 C 63.445312 708.414062 65.316406 710.730469 67.242188 713 C 69.164062 715.273438 71.140625 717.5 73.167969 719.679688 C 76 722.554688 78.660156 725.585938 81.144531 728.769531 C 83.628906 731.949219 85.921875 735.261719 88.027344 738.707031 C 90.132812 742.152344 92.035156 745.703125 93.734375 749.367188 C 95.433594 753.03125 96.917969 756.777344 98.1875 760.609375 C 99.457031 764.441406 100.503906 768.332031 101.324219 772.285156 C 102.148438 776.238281 102.746094 780.222656 103.113281 784.242188 C 103.480469 788.261719 103.617188 792.292969 103.523438 796.328125 C 103.429688 800.363281 103.105469 804.378906 102.554688 808.378906 C 102.546875 811.109375 102.601562 813.835938 102.714844 816.5625 C 102.824219 819.289062 102.996094 822.015625 103.222656 824.734375 C 103.453125 827.453125 103.738281 830.167969 104.082031 832.875 C 104.425781 835.582031 104.828125 838.28125 105.289062 840.972656 C 105.746094 843.660156 106.265625 846.339844 106.839844 849.007812 C 107.414062 851.675781 108.046875 854.332031 108.734375 856.972656 C 109.421875 859.613281 110.164062 862.238281 110.964844 864.847656 C 111.765625 867.457031 112.621094 870.046875 113.53125 872.621094 C 114.445312 875.195312 115.410156 877.746094 116.429688 880.277344 C 117.449219 882.808594 118.523438 885.316406 119.652344 887.800781 C 120.78125 890.289062 121.960938 892.746094 123.191406 895.183594 C 124.425781 897.617188 125.710938 900.023438 127.046875 902.40625 C 128.382812 904.785156 129.769531 907.136719 131.203125 909.457031 C 132.640625 911.777344 134.125 914.066406 135.660156 916.324219 C 137.195312 918.578125 138.777344 920.804688 140.40625 922.992188 C 142.035156 925.183594 143.710938 927.335938 145.433594 929.453125 C 147.15625 931.570312 148.921875 933.652344 150.730469 935.695312 C 152.542969 937.734375 154.394531 939.738281 156.292969 941.699219 C 158.1875 943.664062 160.125 945.585938 162.105469 947.464844 C 164.082031 949.34375 166.101562 951.183594 168.15625 952.976562 C 170.214844 954.769531 172.308594 956.519531 174.441406 958.222656 C 176.574219 959.925781 178.742188 961.585938 180.945312 963.195312 C 183.144531 964.808594 185.382812 966.371094 187.652344 967.886719 C 189.921875 969.402344 192.222656 970.867188 194.554688 972.285156 C 196.886719 973.703125 199.25 975.070312 201.640625 976.386719 C 204.03125 977.703125 206.449219 978.964844 208.894531 980.179688 C 211.339844 981.390625 213.808594 982.550781 216.304688 983.660156 C 218.796875 984.765625 221.316406 985.820312 223.855469 986.820312 C 226.394531 987.816406 228.957031 988.761719 231.535156 989.652344 C 234.117188 990.542969 236.714844 991.375 239.328125 992.15625 C 241.945312 992.933594 244.578125 993.65625 247.222656 994.324219 C 249.871094 994.988281 252.53125 995.597656 255.203125 996.148438 C 264.972656 979.453125 277.125 964.722656 291.652344 951.949219 C 335.476562 913.828125 396.054688 899.898438 471.683594 910.425781 C 472.378906 910.542969 473.066406 910.691406 473.742188 910.871094 C 474.421875 911.054688 475.09375 911.269531 475.75 911.515625 C 476.410156 911.761719 477.054688 912.039062 477.6875 912.347656 C 478.316406 912.65625 478.933594 912.996094 479.53125 913.363281 C 480.132812 913.730469 480.710938 914.128906 481.269531 914.550781 C 481.832031 914.976562 482.371094 915.425781 482.886719 915.902344 C 483.40625 916.378906 483.898438 916.878906 484.367188 917.402344 C 484.835938 917.925781 485.277344 918.472656 485.695312 919.039062 C 486.109375 919.605469 486.5 920.191406 486.859375 920.796875 C 487.21875 921.402344 487.546875 922.019531 487.847656 922.65625 C 488.148438 923.292969 488.414062 923.941406 488.652344 924.605469 C 488.890625 925.265625 489.09375 925.9375 489.265625 926.621094 C 489.4375 927.300781 489.574219 927.988281 489.679688 928.683594 C 489.785156 929.378906 489.859375 930.078125 489.894531 930.78125 C 489.933594 931.484375 489.9375 932.183594 489.90625 932.886719 C 489.878906 933.589844 489.8125 934.289062 489.714844 934.984375 C 489.621094 935.683594 489.488281 936.371094 489.324219 937.054688 C 489.160156 937.738281 488.964844 938.414062 488.734375 939.078125 C 488.503906 939.742188 488.242188 940.394531 487.949219 941.035156 C 487.660156 941.675781 487.335938 942.296875 486.984375 942.90625 C 486.628906 943.515625 486.25 944.105469 485.839844 944.675781 C 485.429688 945.246094 484.992188 945.796875 484.53125 946.328125 C 484.066406 946.855469 483.582031 947.363281 483.070312 947.84375 C 482.558594 948.328125 482.023438 948.78125 481.46875 949.214844 C 480.910156 949.644531 480.335938 950.046875 479.742188 950.421875 C 479.148438 950.796875 478.535156 951.140625 477.90625 951.457031 C 477.277344 951.773438 476.636719 952.058594 475.980469 952.3125 C 475.324219 952.566406 474.660156 952.789062 473.980469 952.976562 C 473.304688 953.167969 472.621094 953.324219 471.929688 953.445312 C 471.234375 953.570312 470.539062 953.660156 469.839844 953.714844 C 469.136719 953.769531 468.433594 953.792969 467.730469 953.78125 C 467.03125 953.769531 466.328125 953.722656 465.628906 953.644531 C 403.15625 944.9375 354.40625 955.347656 320.558594 984.660156 C 312.179688 992.132812 304.769531 1000.46875 298.324219 1009.664062 C 291.882812 1018.859375 286.574219 1028.667969 282.40625 1039.09375 C 284.910156 1046.558594 287.859375 1053.839844 291.253906 1060.9375 C 294.652344 1068.039062 298.46875 1074.902344 302.710938 1081.53125 C 306.953125 1088.160156 311.585938 1094.503906 316.605469 1100.566406 C 321.628906 1106.625 327.003906 1112.355469 332.730469 1117.753906 C 337.097656 1121.875 341.648438 1125.777344 346.386719 1129.46875 C 351.125 1133.15625 356.027344 1136.609375 361.09375 1139.832031 C 366.160156 1143.054688 371.367188 1146.03125 376.714844 1148.761719 C 382.066406 1151.488281 387.53125 1153.957031 393.113281 1156.164062 C 398.695312 1158.375 404.371094 1160.3125 410.140625 1161.984375 C 415.90625 1163.652344 421.742188 1165.046875 427.640625 1166.160156 C 433.539062 1167.277344 439.480469 1168.109375 445.460938 1168.664062 C 451.4375 1169.214844 457.429688 1169.480469 463.433594 1169.464844 C 466.988281 1169.457031 470.539062 1169.347656 474.089844 1169.136719 C 477.636719 1168.929688 481.179688 1168.621094 484.710938 1168.207031 C 488.242188 1167.796875 491.757812 1167.289062 495.257812 1166.679688 C 498.761719 1166.066406 502.242188 1165.359375 505.703125 1164.550781 C 509.167969 1163.742188 512.601562 1162.835938 516.011719 1161.835938 C 519.421875 1160.832031 522.804688 1159.730469 526.152344 1158.535156 C 529.5 1157.339844 532.808594 1156.050781 536.085938 1154.667969 C 539.359375 1153.285156 542.59375 1151.808594 545.78125 1150.242188 C 548.972656 1148.675781 552.117188 1147.019531 555.214844 1145.273438 C 558.3125 1143.527344 561.355469 1141.695312 564.347656 1139.777344 C 567.339844 1137.859375 570.277344 1135.859375 573.15625 1133.773438 C 576.035156 1131.6875 578.851562 1129.523438 581.609375 1127.277344 C 584.363281 1125.03125 587.054688 1122.707031 589.679688 1120.3125 C 592.300781 1117.914062 594.855469 1115.441406 597.339844 1112.898438 C 599.824219 1110.355469 602.234375 1107.742188 604.570312 1105.0625 C 606.902344 1102.382812 609.160156 1099.636719 611.339844 1096.828125 L 611.339844 531.574219 C 593.261719 535.226562 575 537.09375 556.554688 537.175781 C 536.707031 537.265625 517.175781 534.828125 497.960938 529.855469 C 486.203125 529.542969 404.011719 528.761719 375.695312 577.480469 C 375.34375 578.117188 374.964844 578.734375 374.554688 579.335938 C 374.144531 579.933594 373.703125 580.511719 373.234375 581.066406 C 372.765625 581.621094 372.269531 582.152344 371.75 582.65625 C 371.226562 583.160156 370.683594 583.640625 370.113281 584.089844 C 369.542969 584.542969 368.953125 584.964844 368.34375 585.355469 C 367.730469 585.75 367.101562 586.109375 366.453125 586.4375 C 365.808594 586.769531 365.144531 587.066406 364.46875 587.328125 C 363.792969 587.59375 363.101562 587.820312 362.402344 588.015625 C 361.703125 588.210938 360.996094 588.371094 360.28125 588.492188 C 359.5625 588.617188 358.84375 588.707031 358.121094 588.757812 C 357.394531 588.808594 356.667969 588.824219 355.945312 588.804688 C 355.21875 588.785156 354.492188 588.726562 353.773438 588.636719 C 353.054688 588.542969 352.339844 588.414062 351.632812 588.25 C 350.921875 588.085938 350.226562 587.886719 349.539062 587.65625 C 348.851562 587.421875 348.175781 587.15625 347.515625 586.851562 C 346.855469 586.550781 346.210938 586.21875 345.582031 585.855469 C 344.953125 585.488281 344.34375 585.09375 343.757812 584.667969 C 343.167969 584.242188 342.601562 583.789062 342.058594 583.304688 C 341.515625 582.824219 341 582.316406 340.507812 581.78125 C 340.015625 581.246094 339.550781 580.6875 339.113281 580.109375 C 338.675781 579.527344 338.269531 578.925781 337.894531 578.304688 C 337.515625 577.683594 337.171875 577.046875 336.859375 576.390625 C 336.546875 575.734375 336.265625 575.066406 336.019531 574.382812 C 335.773438 573.699219 335.5625 573.007812 335.386719 572.300781 C 335.207031 571.597656 335.066406 570.886719 334.960938 570.167969 C 334.855469 569.449219 334.785156 568.726562 334.75 568 C 334.71875 567.273438 334.71875 566.550781 334.757812 565.824219 C 334.796875 565.097656 334.871094 564.378906 334.984375 563.660156 C 335.09375 562.941406 335.238281 562.230469 335.421875 561.527344 C 335.601562 560.824219 335.820312 560.132812 336.070312 559.449219 C 336.320312 558.769531 336.605469 558.101562 336.921875 557.449219 C 337.238281 556.792969 337.589844 556.15625 337.96875 555.539062 C 340.558594 551.554688 343.339844 547.707031 346.316406 544 C 349.292969 540.292969 352.449219 536.746094 355.78125 533.359375 C 359.117188 529.972656 362.613281 526.761719 366.269531 523.726562 C 369.929688 520.691406 373.730469 517.847656 377.675781 515.195312 C 381.621094 512.546875 385.691406 510.101562 389.882812 507.859375 C 394.074219 505.617188 398.367188 503.59375 402.761719 501.785156 C 407.160156 499.980469 411.636719 498.398438 416.191406 497.039062 C 420.746094 495.683594 425.359375 494.5625 430.027344 493.671875 C 425.019531 489 420.332031 484.027344 415.960938 478.757812 C 411.59375 473.484375 407.578125 467.953125 403.914062 462.167969 C 400.253906 456.378906 396.976562 450.382812 394.085938 444.175781 C 391.195312 437.96875 388.710938 431.601562 386.632812 425.078125 C 386.40625 424.398438 386.214844 423.710938 386.054688 423.015625 C 385.894531 422.320312 385.769531 421.617188 385.675781 420.90625 C 385.585938 420.199219 385.53125 419.488281 385.511719 418.773438 C 385.488281 418.058594 385.503906 417.34375 385.550781 416.632812 C 385.601562 415.917969 385.6875 415.210938 385.804688 414.503906 C 385.921875 413.800781 386.078125 413.101562 386.265625 412.414062 C 386.453125 411.722656 386.671875 411.042969 386.925781 410.375 C 387.179688 409.707031 387.464844 409.054688 387.785156 408.414062 C 388.101562 407.773438 388.453125 407.148438 388.832031 406.542969 C 389.210938 405.9375 389.617188 405.351562 390.054688 404.789062 C 390.492188 404.222656 390.957031 403.679688 391.445312 403.160156 C 391.9375 402.636719 392.453125 402.144531 392.988281 401.675781 C 393.527344 401.203125 394.089844 400.761719 394.671875 400.347656 C 395.253906 399.933594 395.855469 399.546875 396.476562 399.191406 C 397.09375 398.835938 397.730469 398.511719 398.382812 398.21875 C 399.035156 397.925781 399.699219 397.664062 400.378906 397.4375 C 401.054688 397.210938 401.742188 397.015625 402.4375 396.855469 C 403.136719 396.695312 403.835938 396.570312 404.546875 396.476562 C 405.253906 396.386719 405.96875 396.332031 406.683594 396.308594 C 407.394531 396.289062 408.109375 396.300781 408.824219 396.351562 C 409.535156 396.398438 410.246094 396.480469 410.949219 396.601562 C 411.65625 396.71875 412.351562 396.871094 413.042969 397.058594 C 413.734375 397.246094 414.410156 397.464844 415.078125 397.71875 C 415.75 397.972656 416.402344 398.257812 417.042969 398.574219 C 417.683594 398.894531 418.304688 399.242188 418.914062 399.621094 C 419.519531 400 420.105469 400.40625 420.671875 400.84375 C 421.238281 401.28125 421.78125 401.742188 422.300781 402.230469 C 422.820312 402.722656 423.316406 403.238281 423.785156 403.773438 C 424.257812 404.3125 424.699219 404.875 425.113281 405.457031 C 425.53125 406.039062 425.914062 406.636719 426.269531 407.257812 C 426.628906 407.878906 426.953125 408.511719 427.246094 409.164062 C 427.539062 409.816406 427.800781 410.480469 428.027344 411.160156 C 461.667969 511.230469 570.960938 496.253906 611.339844 486.9375 L 611.339844 82.371094 C 607.289062 77.144531 602.96875 72.144531 598.386719 67.375 C 593.808594 62.601562 588.988281 58.085938 583.925781 53.824219 C 578.867188 49.5625 573.597656 45.578125 568.117188 41.875 C 562.636719 38.171875 556.976562 34.765625 551.136719 31.660156 C 545.296875 28.554688 539.308594 25.765625 533.171875 23.292969 C 527.039062 20.820312 520.789062 18.675781 514.429688 16.863281 C 508.066406 15.050781 501.625 13.582031 495.109375 12.449219 C 488.589844 11.316406 482.03125 10.535156 475.433594 10.097656 Z M 475.433594 10.097656 " fill-opacity="1" fill-rule="nonzero"/><g clip-path="url(#d3628407a8)"><g transform="matrix(1, 0, 0, 1, 450, 781)"><g clip-path="url(#cf171bddcf)"><g clip-path="url(#2958907597)"><path fill="#ffdb6e" d="M 0.546875 0.222656 L 51.316406 0.222656 L 51.316406 33.042969 L 0.546875 33.042969 Z M 0.546875 0.222656 " fill-opacity="1" fill-rule="nonzero"/></g></g></g></g></g></g></svg>