<svg xmlns="http://www.w3.org/2000/svg" xmlns:xlink="http://www.w3.org/1999/xlink" width="2380" zoomAndPan="magnify" viewBox="0 0 1784.88 1784.99993" height="2380" preserveAspectRatio="xMidYMid meet" version="1.0"><defs><clipPath id="986d8a8723"><path d="M 0 0.0585938 L 1784.761719 0.0585938 L 1784.761719 1784.9375 L 0 1784.9375 Z M 0 0.0585938 " clip-rule="nonzero"/></clipPath><clipPath id="a0246c70f6"><path d="M 595.6875 958.488281 L 784.996094 958.488281 L 784.996094 1064.882812 L 595.6875 1064.882812 Z M 595.6875 958.488281 " clip-rule="nonzero"/></clipPath><clipPath id="f529715c94"><path d="M 0.6875 0.488281 L 189.996094 0.488281 L 189.996094 106.882812 L 0.6875 106.882812 Z M 0.6875 0.488281 " clip-rule="nonzero"/></clipPath><clipPath id="e8409529d0"><rect x="0" width="190" y="0" height="107"/></clipPath><clipPath id="f197ef8949"><path d="M 0 501 L 1283 501 L 1283 1784.9375 L 0 1784.9375 Z M 0 501 " clip-rule="nonzero"/></clipPath><clipPath id="ac1d87f624"><path d="M 1059 334 L 1784.761719 334 L 1784.761719 1060 L 1059 1060 Z M 1059 334 " clip-rule="nonzero"/></clipPath><clipPath id="ad09cda85c"><path d="M 669 0.0585938 L 1283 0.0585938 L 1283 614 L 669 614 Z M 669 0.0585938 " clip-rule="nonzero"/></clipPath><clipPath id="53465242e7"><rect x="0" width="1785" y="0" height="1785"/></clipPath></defs><g clip-path="url(#986d8a8723)"><g transform="matrix(1, 0, 0, 1, 0, -0.000000000000097387)"><g clip-path="url(#53465242e7)"><g clip-path="url(#a0246c70f6)"><g transform="matrix(1, 0, 0, 1, 595, 958)"><g clip-path="url(#e8409529d0)"><g clip-path="url(#f529715c94)"><path fill="#ffdb6e" d="M 0.6875 0.488281 L 189.792969 0.488281 L 189.792969 106.882812 L 0.6875 106.882812 Z M 0.6875 0.488281 " fill-opacity="1" fill-rule="nonzero"/></g></g></g></g><g clip-path="url(#f197ef8949)"><path fill="#ffdb6e" d="M 641.488281 1784.582031 C 640.28125 1784.609375 639.082031 1784.535156 637.886719 1784.363281 C 636.695312 1784.191406 635.523438 1783.921875 634.371094 1783.554688 C 633.222656 1783.1875 632.113281 1782.730469 631.039062 1782.179688 C 629.964844 1781.628906 628.945312 1780.996094 627.976562 1780.277344 C 627.007812 1779.554688 626.105469 1778.761719 625.265625 1777.894531 C 624.429688 1777.027344 623.667969 1776.09375 622.988281 1775.101562 C 622.304688 1774.105469 621.707031 1773.0625 621.195312 1771.96875 C 620.683594 1770.878906 620.269531 1769.75 619.945312 1768.589844 C 592.136719 1676.308594 568.726562 1601.289062 544.734375 1534.996094 C 541.683594 1526.550781 538.40625 1518.195312 534.894531 1509.929688 C 531.386719 1501.664062 527.65625 1493.5 523.699219 1485.441406 C 519.742188 1477.378906 515.566406 1469.433594 511.171875 1461.601562 C 506.777344 1453.769531 502.175781 1446.0625 497.359375 1438.484375 C 492.542969 1430.90625 487.523438 1423.464844 482.300781 1416.160156 C 477.074219 1408.859375 471.652344 1401.703125 466.039062 1394.695312 C 460.421875 1387.691406 454.617188 1380.84375 448.625 1374.15625 C 442.632812 1367.46875 436.460938 1360.949219 430.109375 1354.601562 C 423.757812 1348.253906 417.238281 1342.082031 410.550781 1336.089844 C 403.863281 1330.097656 397.015625 1324.296875 390.007812 1318.679688 C 383 1313.066406 375.84375 1307.644531 368.539062 1302.421875 C 361.234375 1297.199219 353.792969 1292.179688 346.214844 1287.367188 C 338.632812 1282.550781 330.925781 1277.949219 323.09375 1273.558594 C 315.261719 1269.164062 307.316406 1264.992188 299.253906 1261.035156 C 291.191406 1257.082031 283.027344 1253.347656 274.761719 1249.84375 C 266.496094 1246.335938 258.140625 1243.054688 249.695312 1240.007812 C 184.121094 1216.226562 111.707031 1193.605469 16.132812 1164.773438 C 14.988281 1164.425781 13.875 1163.992188 12.796875 1163.464844 C 11.71875 1162.941406 10.691406 1162.332031 9.710938 1161.644531 C 8.730469 1160.953125 7.808594 1160.191406 6.953125 1159.355469 C 6.09375 1158.515625 5.308594 1157.617188 4.59375 1156.65625 C 3.878906 1155.691406 3.246094 1154.679688 2.691406 1153.617188 C 2.140625 1152.550781 1.675781 1151.449219 1.300781 1150.3125 C 0.925781 1149.175781 0.640625 1148.015625 0.449219 1146.832031 C 0.261719 1145.648438 0.164062 1144.457031 0.164062 1143.257812 C 0.164062 1142.058594 0.261719 1140.867188 0.449219 1139.683594 C 0.640625 1138.5 0.925781 1137.339844 1.300781 1136.203125 C 1.675781 1135.0625 2.140625 1133.964844 2.691406 1132.898438 C 3.246094 1131.835938 3.878906 1130.820312 4.59375 1129.859375 C 5.308594 1128.898438 6.09375 1127.996094 6.953125 1127.160156 C 7.808594 1126.324219 8.730469 1125.5625 9.710938 1124.871094 C 10.691406 1124.179688 11.71875 1123.574219 12.796875 1123.050781 C 13.875 1122.523438 14.988281 1122.085938 16.132812 1121.742188 C 111.707031 1092.910156 184.121094 1070.285156 249.730469 1046.503906 C 258.175781 1043.457031 266.53125 1040.175781 274.796875 1036.667969 C 283.0625 1033.160156 291.226562 1029.429688 299.289062 1025.472656 C 307.351562 1021.519531 315.296875 1017.34375 323.128906 1012.953125 C 330.960938 1008.5625 338.667969 1003.957031 346.246094 999.144531 C 353.828125 994.328125 361.269531 989.308594 368.574219 984.085938 C 375.878906 978.863281 383.035156 973.445312 390.042969 967.828125 C 397.046875 962.214844 403.898438 956.410156 410.585938 950.417969 C 417.273438 944.429688 423.792969 938.257812 430.144531 931.910156 C 436.492188 925.558594 442.664062 919.039062 448.65625 912.351562 C 454.648438 905.664062 460.453125 898.820312 466.070312 891.8125 C 471.6875 884.804688 477.109375 877.652344 482.332031 870.347656 C 487.554688 863.042969 492.574219 855.601562 497.390625 848.023438 C 502.207031 840.445312 506.8125 832.738281 511.203125 824.90625 C 515.597656 817.074219 519.773438 809.128906 523.730469 801.066406 C 527.6875 793.007812 531.417969 784.84375 534.929688 776.578125 C 538.4375 768.3125 541.714844 759.957031 544.765625 751.511719 C 568.757812 685.171875 592.167969 610.148438 619.949219 517.921875 C 620.296875 516.773438 620.738281 515.660156 621.265625 514.582031 C 621.792969 513.507812 622.402344 512.476562 623.09375 511.5 C 623.785156 510.519531 624.550781 509.601562 625.390625 508.742188 C 626.230469 507.886719 627.132812 507.101562 628.097656 506.386719 C 629.058594 505.675781 630.074219 505.042969 631.140625 504.492188 C 632.207031 503.941406 633.308594 503.476562 634.449219 503.101562 C 635.585938 502.726562 636.75 502.445312 637.933594 502.257812 C 639.117188 502.070312 640.308594 501.976562 641.511719 501.976562 C 642.710938 501.976562 643.902344 502.074219 645.085938 502.265625 C 646.269531 502.457031 647.429688 502.742188 648.570312 503.121094 C 649.707031 503.496094 650.808594 503.964844 651.871094 504.515625 C 652.9375 505.070312 653.949219 505.703125 654.914062 506.421875 C 655.875 507.136719 656.777344 507.921875 657.613281 508.78125 C 658.449219 509.640625 659.210938 510.5625 659.902344 511.542969 C 660.59375 512.523438 661.199219 513.554688 661.726562 514.632812 C 662.25 515.710938 662.6875 516.824219 663.035156 517.972656 C 690.839844 610.359375 714.269531 685.433594 738.21875 751.511719 C 741.265625 759.957031 744.542969 768.316406 748.050781 776.582031 C 751.558594 784.847656 755.289062 793.011719 759.246094 801.074219 C 763.199219 809.136719 767.375 817.082031 771.765625 824.917969 C 776.15625 832.75 780.761719 840.457031 785.574219 848.035156 C 790.390625 855.617188 795.410156 863.058594 800.632812 870.363281 C 805.855469 877.667969 811.277344 884.824219 816.894531 891.828125 C 822.511719 898.835938 828.3125 905.683594 834.304688 912.371094 C 840.300781 919.058594 846.46875 925.578125 852.820312 931.925781 C 859.171875 938.277344 865.691406 944.449219 872.378906 950.4375 C 879.070312 956.429688 885.917969 962.234375 892.925781 967.847656 C 899.933594 973.464844 907.089844 978.882812 914.394531 984.105469 C 921.699219 989.328125 929.144531 994.34375 936.722656 999.160156 C 944.304688 1003.972656 952.011719 1008.574219 959.84375 1012.964844 C 967.679688 1017.355469 975.625 1021.527344 983.6875 1025.480469 C 991.75 1029.4375 999.917969 1033.167969 1008.183594 1036.671875 C 1016.453125 1040.179688 1024.808594 1043.453125 1033.257812 1046.5 C 1098.992188 1070.335938 1171.359375 1092.957031 1266.824219 1121.738281 C 1267.96875 1122.085938 1269.082031 1122.519531 1270.160156 1123.046875 C 1271.238281 1123.570312 1272.265625 1124.179688 1273.246094 1124.867188 C 1274.226562 1125.558594 1275.144531 1126.320312 1276.003906 1127.15625 C 1276.863281 1127.992188 1277.648438 1128.894531 1278.363281 1129.855469 C 1279.078125 1130.820312 1279.710938 1131.832031 1280.261719 1132.894531 C 1280.816406 1133.960938 1281.28125 1135.0625 1281.65625 1136.199219 C 1282.03125 1137.335938 1282.316406 1138.496094 1282.507812 1139.679688 C 1282.695312 1140.863281 1282.792969 1142.054688 1282.792969 1143.253906 C 1282.792969 1144.453125 1282.695312 1145.644531 1282.507812 1146.828125 C 1282.316406 1148.011719 1282.03125 1149.171875 1281.65625 1150.308594 C 1281.28125 1151.449219 1280.816406 1152.546875 1280.261719 1153.613281 C 1279.710938 1154.675781 1279.078125 1155.6875 1278.363281 1156.652344 C 1277.648438 1157.613281 1276.863281 1158.515625 1276.003906 1159.351562 C 1275.144531 1160.1875 1274.226562 1160.949219 1273.246094 1161.640625 C 1272.265625 1162.332031 1271.238281 1162.9375 1270.160156 1163.460938 C 1269.082031 1163.988281 1267.96875 1164.425781 1266.824219 1164.769531 C 1171.324219 1193.550781 1098.96875 1216.171875 1033.257812 1240.003906 C 1024.808594 1243.050781 1016.453125 1246.332031 1008.1875 1249.839844 C 999.921875 1253.347656 991.757812 1257.078125 983.695312 1261.035156 C 975.632812 1264.988281 967.6875 1269.164062 959.855469 1273.554688 C 952.023438 1277.945312 944.316406 1282.550781 936.738281 1287.363281 C 929.15625 1292.179688 921.714844 1297.195312 914.410156 1302.417969 C 907.105469 1307.640625 899.949219 1313.0625 892.945312 1318.675781 C 885.9375 1324.292969 879.089844 1330.097656 872.398438 1336.085938 C 865.710938 1342.078125 859.191406 1348.25 852.839844 1354.597656 C 846.492188 1360.945312 840.320312 1367.464844 834.328125 1374.152344 C 828.335938 1380.839844 822.53125 1387.6875 816.914062 1394.695312 C 811.296875 1401.699219 805.878906 1408.855469 800.652344 1416.15625 C 795.429688 1423.460938 790.410156 1430.902344 785.59375 1438.480469 C 780.777344 1446.0625 776.171875 1453.765625 771.78125 1461.597656 C 767.386719 1469.429688 763.210938 1477.375 759.253906 1485.4375 C 755.296875 1493.496094 751.566406 1501.660156 748.054688 1509.925781 C 744.546875 1518.191406 741.269531 1526.546875 738.21875 1534.992188 C 714.015625 1601.96875 690.65625 1676.832031 663.035156 1768.585938 C 662.710938 1769.746094 662.292969 1770.875 661.78125 1771.96875 C 661.273438 1773.0625 660.675781 1774.105469 659.992188 1775.097656 C 659.308594 1776.09375 658.546875 1777.027344 657.710938 1777.894531 C 656.875 1778.761719 655.972656 1779.558594 655.003906 1780.277344 C 654.035156 1780.996094 653.011719 1781.628906 651.9375 1782.179688 C 650.863281 1782.730469 649.753906 1783.1875 648.601562 1783.554688 C 647.453125 1783.921875 646.28125 1784.191406 645.085938 1784.363281 C 643.894531 1784.535156 642.691406 1784.609375 641.488281 1784.582031 Z M 641.488281 1784.582031 " fill-opacity="1" fill-rule="nonzero"/></g><g clip-path="url(#ac1d87f624)"><path fill="#ffdb6e" d="M 1422.214844 1059.621094 C 1421.535156 1059.636719 1420.855469 1059.59375 1420.179688 1059.496094 C 1419.507812 1059.398438 1418.84375 1059.246094 1418.195312 1059.039062 C 1417.546875 1058.832031 1416.917969 1058.570312 1416.3125 1058.261719 C 1415.703125 1057.949219 1415.128906 1057.589844 1414.578125 1057.183594 C 1414.03125 1056.777344 1413.523438 1056.328125 1413.050781 1055.839844 C 1412.578125 1055.347656 1412.148438 1054.820312 1411.761719 1054.261719 C 1411.375 1053.699219 1411.039062 1053.109375 1410.75 1052.492188 C 1410.460938 1051.871094 1410.222656 1051.234375 1410.042969 1050.578125 C 1394.324219 998.421875 1381.089844 956.015625 1367.519531 918.546875 C 1365.792969 913.773438 1363.941406 909.050781 1361.957031 904.378906 C 1359.972656 899.707031 1357.863281 895.09375 1355.628906 890.539062 C 1353.390625 885.984375 1351.03125 881.492188 1348.546875 877.066406 C 1346.0625 872.636719 1343.460938 868.28125 1340.738281 864 C 1338.015625 859.714844 1335.179688 855.507812 1332.226562 851.382812 C 1329.273438 847.253906 1326.210938 843.207031 1323.035156 839.25 C 1319.859375 835.289062 1316.578125 831.417969 1313.191406 827.640625 C 1309.804688 823.859375 1306.316406 820.175781 1302.726562 816.585938 C 1299.140625 812.996094 1295.453125 809.511719 1291.671875 806.125 C 1287.894531 802.738281 1284.023438 799.457031 1280.0625 796.28125 C 1276.101562 793.109375 1272.054688 790.046875 1267.925781 787.09375 C 1263.800781 784.140625 1259.59375 781.304688 1255.308594 778.582031 C 1251.023438 775.863281 1246.667969 773.261719 1242.242188 770.777344 C 1237.8125 768.296875 1233.324219 765.9375 1228.765625 763.703125 C 1224.210938 761.464844 1219.59375 759.355469 1214.921875 757.375 C 1210.25 755.390625 1205.527344 753.539062 1200.753906 751.816406 C 1163.691406 738.375 1122.757812 725.589844 1068.742188 709.292969 C 1068.09375 709.097656 1067.464844 708.851562 1066.855469 708.554688 C 1066.246094 708.253906 1065.664062 707.914062 1065.109375 707.523438 C 1064.554688 707.132812 1064.035156 706.703125 1063.550781 706.226562 C 1063.066406 705.753906 1062.621094 705.246094 1062.21875 704.703125 C 1061.816406 704.160156 1061.457031 703.585938 1061.144531 702.984375 C 1060.832031 702.382812 1060.570312 701.761719 1060.359375 701.117188 C 1060.144531 700.476562 1059.984375 699.820312 1059.878906 699.148438 C 1059.769531 698.480469 1059.714844 697.808594 1059.714844 697.128906 C 1059.714844 696.453125 1059.769531 695.78125 1059.878906 695.109375 C 1059.984375 694.441406 1060.144531 693.785156 1060.359375 693.144531 C 1060.570312 692.5 1060.832031 691.878906 1061.144531 691.277344 C 1061.457031 690.675781 1061.816406 690.101562 1062.21875 689.558594 C 1062.621094 689.015625 1063.066406 688.503906 1063.550781 688.03125 C 1064.035156 687.558594 1064.554688 687.128906 1065.109375 686.738281 C 1065.664062 686.347656 1066.246094 686.003906 1066.855469 685.707031 C 1067.464844 685.410156 1068.09375 685.164062 1068.742188 684.96875 C 1122.765625 668.671875 1163.691406 655.886719 1200.769531 642.445312 C 1205.546875 640.722656 1210.269531 638.871094 1214.941406 636.886719 C 1219.613281 634.90625 1224.226562 632.796875 1228.785156 630.558594 C 1233.339844 628.324219 1237.832031 625.964844 1242.257812 623.484375 C 1246.6875 621 1251.042969 618.398438 1255.324219 615.679688 C 1259.609375 612.957031 1263.816406 610.121094 1267.945312 607.167969 C 1272.074219 604.214844 1276.117188 601.152344 1280.078125 597.980469 C 1284.039062 594.804688 1287.910156 591.523438 1291.691406 588.136719 C 1295.472656 584.75 1299.15625 581.265625 1302.746094 577.675781 C 1306.335938 574.085938 1309.824219 570.402344 1313.210938 566.621094 C 1316.597656 562.84375 1319.878906 558.972656 1323.050781 555.011719 C 1326.226562 551.050781 1329.289062 547.007812 1332.242188 542.878906 C 1335.195312 538.753906 1338.035156 534.546875 1340.753906 530.261719 C 1343.476562 525.976562 1346.078125 521.625 1348.5625 517.195312 C 1351.046875 512.769531 1353.40625 508.277344 1355.640625 503.722656 C 1357.878906 499.167969 1359.988281 494.550781 1361.972656 489.878906 C 1363.957031 485.207031 1365.808594 480.484375 1367.53125 475.710938 C 1381.089844 438.214844 1394.324219 395.808594 1410.027344 343.683594 C 1410.226562 343.03125 1410.472656 342.40625 1410.769531 341.796875 C 1411.070312 341.1875 1411.414062 340.605469 1411.804688 340.050781 C 1412.195312 339.5 1412.628906 338.980469 1413.105469 338.496094 C 1413.578125 338.011719 1414.085938 337.566406 1414.632812 337.164062 C 1415.179688 336.757812 1415.75 336.402344 1416.355469 336.089844 C 1416.957031 335.78125 1417.578125 335.519531 1418.222656 335.304688 C 1418.867188 335.09375 1419.523438 334.933594 1420.195312 334.828125 C 1420.863281 334.722656 1421.535156 334.667969 1422.214844 334.667969 C 1422.894531 334.671875 1423.566406 334.726562 1424.234375 334.832031 C 1424.90625 334.941406 1425.5625 335.101562 1426.203125 335.316406 C 1426.847656 335.53125 1427.472656 335.792969 1428.074219 336.105469 C 1428.671875 336.417969 1429.246094 336.777344 1429.789062 337.183594 C 1430.335938 337.585938 1430.84375 338.03125 1431.316406 338.519531 C 1431.789062 339.003906 1432.21875 339.523438 1432.609375 340.078125 C 1433 340.632812 1433.34375 341.214844 1433.640625 341.824219 C 1433.9375 342.433594 1434.183594 343.0625 1434.378906 343.714844 C 1450.09375 395.929688 1463.34375 438.363281 1476.875 475.710938 C 1478.597656 480.484375 1480.449219 485.207031 1482.433594 489.878906 C 1484.417969 494.550781 1486.527344 499.167969 1488.761719 503.722656 C 1491 508.277344 1493.359375 512.769531 1495.839844 517.195312 C 1498.324219 521.625 1500.925781 525.980469 1503.648438 530.261719 C 1506.371094 534.546875 1509.207031 538.753906 1512.160156 542.878906 C 1515.113281 547.007812 1518.175781 551.050781 1521.351562 555.011719 C 1524.527344 558.972656 1527.808594 562.839844 1531.195312 566.621094 C 1534.582031 570.402344 1538.070312 574.085938 1541.660156 577.671875 C 1545.25 581.261719 1548.933594 584.746094 1552.714844 588.132812 C 1556.496094 591.519531 1560.367188 594.800781 1564.328125 597.972656 C 1568.289062 601.144531 1572.335938 604.207031 1576.464844 607.160156 C 1580.59375 610.109375 1584.800781 612.945312 1589.085938 615.667969 C 1593.371094 618.386719 1597.726562 620.988281 1602.152344 623.46875 C 1606.582031 625.949219 1611.074219 628.308594 1615.628906 630.542969 C 1620.1875 632.777344 1624.800781 634.882812 1629.476562 636.863281 C 1634.148438 638.84375 1638.871094 640.695312 1643.644531 642.417969 C 1680.804688 655.890625 1721.71875 668.675781 1775.664062 684.941406 C 1776.3125 685.136719 1776.941406 685.382812 1777.546875 685.679688 C 1778.15625 685.976562 1778.738281 686.320312 1779.292969 686.710938 C 1779.847656 687.101562 1780.367188 687.53125 1780.851562 688.003906 C 1781.335938 688.476562 1781.78125 688.984375 1782.183594 689.53125 C 1782.589844 690.074219 1782.945312 690.648438 1783.257812 691.25 C 1783.570312 691.847656 1783.832031 692.472656 1784.046875 693.113281 C 1784.257812 693.757812 1784.417969 694.414062 1784.527344 695.082031 C 1784.632812 695.75 1784.6875 696.425781 1784.6875 697.101562 C 1784.6875 697.78125 1784.632812 698.453125 1784.527344 699.121094 C 1784.417969 699.789062 1784.257812 700.445312 1784.046875 701.089844 C 1783.832031 701.734375 1783.570312 702.355469 1783.257812 702.957031 C 1782.945312 703.558594 1782.589844 704.128906 1782.183594 704.675781 C 1781.78125 705.21875 1781.335938 705.726562 1780.851562 706.199219 C 1780.367188 706.671875 1779.847656 707.105469 1779.292969 707.496094 C 1778.738281 707.882812 1778.15625 708.226562 1777.546875 708.523438 C 1776.941406 708.820312 1776.3125 709.070312 1775.664062 709.265625 C 1721.691406 725.53125 1680.785156 738.320312 1643.644531 751.785156 C 1638.871094 753.511719 1634.148438 755.363281 1629.476562 757.347656 C 1624.804688 759.328125 1620.191406 761.4375 1615.632812 763.671875 C 1611.078125 765.910156 1606.585938 768.269531 1602.160156 770.75 C 1597.730469 773.234375 1593.375 775.835938 1589.09375 778.554688 C 1584.808594 781.277344 1580.601562 784.113281 1576.472656 787.066406 C 1572.34375 790.019531 1568.300781 793.082031 1564.339844 796.253906 C 1560.378906 799.429688 1556.507812 802.710938 1552.726562 806.097656 C 1548.949219 809.484375 1545.261719 812.96875 1541.671875 816.558594 C 1538.085938 820.148438 1534.597656 823.832031 1531.210938 827.613281 C 1527.820312 831.390625 1524.542969 835.261719 1521.367188 839.222656 C 1518.191406 843.179688 1515.128906 847.226562 1512.175781 851.355469 C 1509.222656 855.480469 1506.386719 859.6875 1503.664062 863.972656 C 1500.941406 868.253906 1498.339844 872.609375 1495.855469 877.035156 C 1493.371094 881.464844 1491.011719 885.953125 1488.777344 890.511719 C 1486.539062 895.066406 1484.429688 899.679688 1482.445312 904.351562 C 1480.460938 909.023438 1478.609375 913.746094 1476.882812 918.519531 C 1463.207031 956.375 1450 998.683594 1434.390625 1050.550781 C 1434.207031 1051.210938 1433.972656 1051.847656 1433.6875 1052.464844 C 1433.398438 1053.085938 1433.0625 1053.675781 1432.675781 1054.242188 C 1432.289062 1054.804688 1431.863281 1055.332031 1431.390625 1055.824219 C 1430.917969 1056.316406 1430.40625 1056.765625 1429.859375 1057.171875 C 1429.3125 1057.582031 1428.734375 1057.941406 1428.125 1058.253906 C 1427.519531 1058.566406 1426.890625 1058.824219 1426.242188 1059.035156 C 1425.589844 1059.242188 1424.929688 1059.394531 1424.253906 1059.492188 C 1423.578125 1059.59375 1422.898438 1059.632812 1422.214844 1059.621094 Z M 1422.214844 1059.621094 " fill-opacity="1" fill-rule="nonzero"/></g><g clip-path="url(#ad09cda85c)"><path fill="#ffdb6e" d="M 976.085938 613.488281 C 975.507812 613.503906 974.933594 613.46875 974.363281 613.386719 C 973.792969 613.300781 973.230469 613.175781 972.683594 613 C 972.132812 612.824219 971.601562 612.605469 971.085938 612.339844 C 970.574219 612.078125 970.085938 611.773438 969.621094 611.429688 C 969.160156 611.085938 968.726562 610.707031 968.328125 610.292969 C 967.925781 609.875 967.5625 609.429688 967.234375 608.953125 C 966.910156 608.480469 966.625 607.980469 966.378906 607.457031 C 966.136719 606.933594 965.9375 606.394531 965.78125 605.839844 C 952.484375 561.707031 941.285156 525.824219 929.8125 494.121094 C 928.355469 490.082031 926.785156 486.085938 925.105469 482.132812 C 923.429688 478.179688 921.644531 474.277344 919.75 470.421875 C 917.859375 466.566406 915.863281 462.765625 913.761719 459.019531 C 911.660156 455.273438 909.457031 451.589844 907.152344 447.964844 C 904.851562 444.339844 902.449219 440.78125 899.953125 437.289062 C 897.453125 433.796875 894.859375 430.375 892.175781 427.023438 C 889.488281 423.671875 886.710938 420.398438 883.847656 417.199219 C 880.980469 414 878.027344 410.882812 874.992188 407.847656 C 871.953125 404.808594 868.835938 401.859375 865.636719 398.992188 C 862.4375 396.128906 859.164062 393.351562 855.8125 390.667969 C 852.460938 387.980469 849.039062 385.390625 845.546875 382.890625 C 842.050781 380.394531 838.492188 377.992188 834.867188 375.691406 C 831.242188 373.386719 827.558594 371.1875 823.8125 369.085938 C 820.066406 366.984375 816.265625 364.988281 812.410156 363.097656 C 808.554688 361.207031 804.648438 359.421875 800.695312 357.742188 C 796.742188 356.066406 792.746094 354.5 788.707031 353.039062 C 757.339844 341.667969 722.707031 330.847656 677 317.058594 C 676.453125 316.894531 675.921875 316.683594 675.410156 316.429688 C 674.894531 316.179688 674.40625 315.886719 673.9375 315.558594 C 673.472656 315.226562 673.035156 314.863281 672.625 314.460938 C 672.214844 314.0625 671.839844 313.632812 671.5 313.171875 C 671.160156 312.714844 670.859375 312.230469 670.597656 311.722656 C 670.335938 311.214844 670.113281 310.6875 669.933594 310.144531 C 669.753906 309.601562 669.621094 309.046875 669.527344 308.484375 C 669.4375 307.917969 669.394531 307.351562 669.394531 306.777344 C 669.394531 306.207031 669.4375 305.636719 669.527344 305.074219 C 669.621094 304.507812 669.753906 303.953125 669.933594 303.410156 C 670.113281 302.867188 670.335938 302.34375 670.597656 301.835938 C 670.859375 301.328125 671.160156 300.84375 671.5 300.382812 C 671.839844 299.921875 672.214844 299.492188 672.625 299.09375 C 673.035156 298.695312 673.472656 298.328125 673.9375 298 C 674.40625 297.667969 674.894531 297.378906 675.410156 297.125 C 675.921875 296.875 676.453125 296.664062 677 296.496094 C 722.707031 282.703125 757.339844 271.886719 788.71875 260.511719 C 792.757812 259.054688 796.753906 257.488281 800.707031 255.808594 C 804.660156 254.132812 808.566406 252.347656 812.421875 250.457031 C 816.277344 248.5625 820.078125 246.566406 823.824219 244.46875 C 827.570312 242.367188 831.253906 240.164062 834.878906 237.863281 C 838.503906 235.558594 842.0625 233.160156 845.558594 230.664062 C 849.050781 228.164062 852.472656 225.574219 855.824219 222.886719 C 859.175781 220.203125 862.449219 217.425781 865.648438 214.558594 C 868.847656 211.695312 871.96875 208.742188 875.003906 205.707031 C 878.042969 202.671875 880.992188 199.554688 883.859375 196.355469 C 886.726562 193.15625 889.5 189.882812 892.1875 186.53125 C 894.875 183.179688 897.464844 179.757812 899.964844 176.265625 C 902.464844 172.773438 904.863281 169.214844 907.167969 165.589844 C 909.472656 161.964844 911.671875 158.277344 913.773438 154.535156 C 915.875 150.789062 917.871094 146.988281 919.765625 143.132812 C 921.65625 139.277344 923.441406 135.371094 925.121094 131.417969 C 926.800781 127.464844 928.367188 123.46875 929.828125 119.429688 C 941.300781 87.714844 952.480469 51.816406 965.78125 7.714844 C 965.949219 7.164062 966.160156 6.632812 966.414062 6.117188 C 966.664062 5.605469 966.957031 5.113281 967.289062 4.644531 C 967.621094 4.175781 967.984375 3.738281 968.386719 3.328125 C 968.789062 2.917969 969.21875 2.542969 969.679688 2.203125 C 970.140625 1.859375 970.625 1.558594 971.136719 1.296875 C 971.644531 1.03125 972.171875 0.8125 972.71875 0.632812 C 973.261719 0.453125 973.816406 0.316406 974.382812 0.226562 C 974.949219 0.136719 975.519531 0.09375 976.09375 0.09375 C 976.667969 0.09375 977.238281 0.140625 977.804688 0.230469 C 978.371094 0.324219 978.925781 0.460938 979.46875 0.640625 C 980.011719 0.820312 980.539062 1.042969 981.046875 1.308594 C 981.558594 1.570312 982.042969 1.875 982.503906 2.21875 C 982.960938 2.558594 983.394531 2.933594 983.792969 3.347656 C 984.195312 3.757812 984.558594 4.195312 984.890625 4.664062 C 985.21875 5.132812 985.507812 5.625 985.761719 6.140625 C 986.011719 6.65625 986.222656 7.191406 986.386719 7.738281 C 999.6875 51.921875 1010.898438 87.828125 1022.347656 119.429688 C 1023.804688 123.472656 1025.371094 127.46875 1027.050781 131.421875 C 1028.726562 135.375 1030.511719 139.28125 1032.402344 143.136719 C 1034.292969 146.992188 1036.289062 150.792969 1038.390625 154.539062 C 1040.492188 158.285156 1042.691406 161.96875 1044.996094 165.59375 C 1047.300781 169.222656 1049.699219 172.78125 1052.199219 176.273438 C 1054.695312 179.765625 1057.289062 183.1875 1059.972656 186.539062 C 1062.660156 189.890625 1065.4375 193.167969 1068.300781 196.363281 C 1071.167969 199.5625 1074.121094 202.679688 1077.15625 205.71875 C 1080.195312 208.753906 1083.3125 211.707031 1086.511719 214.570312 C 1089.710938 217.4375 1092.984375 220.210938 1096.335938 222.898438 C 1099.6875 225.582031 1103.113281 228.175781 1106.605469 230.671875 C 1110.097656 233.167969 1113.660156 235.570312 1117.285156 237.871094 C 1120.910156 240.175781 1124.597656 242.375 1128.34375 244.476562 C 1132.089844 246.574219 1135.890625 248.570312 1139.746094 250.460938 C 1143.601562 252.351562 1147.507812 254.136719 1151.460938 255.8125 C 1155.414062 257.488281 1159.414062 259.054688 1163.453125 260.511719 C 1194.890625 271.910156 1229.5 282.734375 1275.15625 296.496094 C 1275.703125 296.664062 1276.234375 296.875 1276.746094 297.125 C 1277.261719 297.378906 1277.75 297.667969 1278.21875 298 C 1278.683594 298.328125 1279.121094 298.695312 1279.53125 299.09375 C 1279.941406 299.492188 1280.316406 299.921875 1280.65625 300.382812 C 1280.996094 300.84375 1281.296875 301.328125 1281.558594 301.835938 C 1281.820312 302.34375 1282.042969 302.867188 1282.222656 303.410156 C 1282.402344 303.953125 1282.535156 304.507812 1282.625 305.074219 C 1282.71875 305.636719 1282.761719 306.207031 1282.761719 306.777344 C 1282.761719 307.351562 1282.71875 307.917969 1282.625 308.484375 C 1282.535156 309.046875 1282.402344 309.601562 1282.222656 310.144531 C 1282.042969 310.6875 1281.820312 311.214844 1281.558594 311.722656 C 1281.296875 312.230469 1280.996094 312.714844 1280.65625 313.171875 C 1280.316406 313.632812 1279.941406 314.0625 1279.53125 314.460938 C 1279.121094 314.863281 1278.683594 315.226562 1278.21875 315.558594 C 1277.75 315.886719 1277.261719 316.179688 1276.746094 316.429688 C 1276.234375 316.683594 1275.703125 316.894531 1275.15625 317.058594 C 1229.472656 330.824219 1194.875 341.628906 1163.449219 353.039062 C 1159.410156 354.5 1155.414062 356.066406 1151.460938 357.742188 C 1147.507812 359.421875 1143.601562 361.207031 1139.746094 363.097656 C 1135.890625 364.988281 1132.089844 366.984375 1128.34375 369.085938 C 1124.597656 371.1875 1120.914062 373.386719 1117.289062 375.691406 C 1113.664062 377.992188 1110.101562 380.390625 1106.609375 382.890625 C 1103.117188 385.386719 1099.695312 387.980469 1096.34375 390.664062 C 1092.992188 393.351562 1089.714844 396.125 1086.515625 398.992188 C 1083.316406 401.859375 1080.199219 404.808594 1077.164062 407.84375 C 1074.125 410.882812 1071.175781 414 1068.308594 417.199219 C 1065.441406 420.394531 1062.667969 423.671875 1059.980469 427.019531 C 1057.292969 430.371094 1054.703125 433.792969 1052.203125 437.285156 C 1049.703125 440.78125 1047.304688 444.339844 1045 447.964844 C 1042.699219 451.589844 1040.496094 455.273438 1038.394531 459.019531 C 1036.292969 462.765625 1034.296875 466.566406 1032.40625 470.421875 C 1030.511719 474.277344 1028.726562 478.179688 1027.046875 482.132812 C 1025.371094 486.085938 1023.800781 490.082031 1022.34375 494.121094 C 1010.769531 526.152344 999.59375 561.957031 986.382812 605.839844 C 986.230469 606.394531 986.03125 606.933594 985.785156 607.457031 C 985.542969 607.980469 985.257812 608.480469 984.929688 608.953125 C 984.605469 609.429688 984.242188 609.875 983.839844 610.289062 C 983.441406 610.707031 983.007812 611.085938 982.546875 611.429688 C 982.082031 611.773438 981.59375 612.078125 981.082031 612.339844 C 980.566406 612.605469 980.035156 612.824219 979.488281 612.996094 C 978.9375 613.171875 978.378906 613.300781 977.804688 613.382812 C 977.234375 613.46875 976.660156 613.503906 976.085938 613.488281 Z M 976.085938 613.488281 " fill-opacity="1" fill-rule="nonzero"/></g></g></g></g></svg>