<svg xmlns="http://www.w3.org/2000/svg" xmlns:xlink="http://www.w3.org/1999/xlink" width="2380" zoomAndPan="magnify" viewBox="0 0 1784.88 1784.99993" height="2380" preserveAspectRatio="xMidYMid meet" version="1.0"><defs><clipPath id="7e914c4e2c"><path d="M 0 30 L 1784.761719 30 L 1784.761719 1755 L 0 1755 Z M 0 30 " clip-rule="nonzero"/></clipPath><clipPath id="478d2f7d41"><path d="M 853.90625 1227.300781 L 926.371094 1227.300781 L 926.371094 1274.132812 L 853.90625 1274.132812 Z M 853.90625 1227.300781 " clip-rule="nonzero"/></clipPath><clipPath id="3a3891c0a3"><path d="M 0.90625 0.300781 L 73.371094 0.300781 L 73.371094 47.132812 L 0.90625 47.132812 Z M 0.90625 0.300781 " clip-rule="nonzero"/></clipPath><clipPath id="4c07f40377"><rect x="0" width="74" y="0" height="48"/></clipPath><clipPath id="47d93eff20"><path d="M 0 0.777344 L 1784.761719 0.777344 L 1784.761719 1724.34375 L 0 1724.34375 Z M 0 0.777344 " clip-rule="nonzero"/></clipPath><clipPath id="39cbb65bed"><rect x="0" width="1785" y="0" height="1725"/></clipPath></defs><g clip-path="url(#7e914c4e2c)"><g transform="matrix(1, 0, 0, 1, 0, 30)"><g clip-path="url(#39cbb65bed)"><g clip-path="url(#478d2f7d41)"><g transform="matrix(1, 0, 0, 1, 853, 1227)"><g clip-path="url(#4c07f40377)"><g clip-path="url(#3a3891c0a3)"><path fill="#ffdb6e" d="M 0.90625 0.300781 L 73.34375 0.300781 L 73.34375 47.132812 L 0.90625 47.132812 Z M 0.90625 0.300781 " fill-opacity="1" fill-rule="nonzero"/></g></g></g></g><g clip-path="url(#47d93eff20)"><path fill="#ffdb6e" d="M 491.003906 869.796875 C 420.527344 869.796875 363.398438 812.652344 363.398438 742.179688 C 363.398438 671.710938 420.527344 614.582031 491.003906 614.582031 C 561.476562 614.582031 618.613281 671.710938 618.613281 742.179688 C 618.613281 812.652344 561.476562 869.796875 491.003906 869.796875 Z M 964.394531 676.359375 L 938.800781 672.558594 C 902.386719 667.132812 871.84375 642.277344 859.21875 607.707031 C 855.429688 597.351562 851.226562 587.199219 846.613281 577.261719 C 831.050781 543.773438 834.882812 504.476562 856.875 474.804688 L 872.292969 453.996094 C 878.390625 445.777344 877.546875 434.328125 870.304688 427.09375 L 806.101562 362.890625 C 798.863281 355.65625 787.417969 354.796875 779.195312 360.894531 L 758.390625 376.320312 C 728.71875 398.316406 689.421875 402.140625 655.925781 386.578125 C 646 381.960938 635.84375 377.757812 625.488281 373.96875 C 590.925781 361.351562 566.050781 330.808594 560.636719 294.394531 L 556.835938 268.792969 C 555.332031 258.675781 546.640625 251.171875 536.402344 251.171875 L 445.601562 251.171875 C 435.371094 251.171875 426.679688 258.675781 425.175781 268.792969 L 421.367188 294.394531 C 415.953125 330.808594 391.085938 361.351562 356.523438 373.96875 C 346.160156 377.757812 336.007812 381.960938 326.082031 386.578125 C 292.589844 402.140625 253.292969 398.316406 223.621094 376.320312 L 202.816406 360.894531 C 194.59375 354.796875 183.140625 355.65625 175.910156 362.890625 L 111.703125 427.09375 C 104.464844 434.328125 103.621094 445.777344 109.710938 453.996094 L 125.136719 474.804688 C 147.125 504.476562 150.953125 543.773438 135.398438 577.261719 C 130.785156 587.199219 126.574219 597.351562 122.792969 607.707031 C 110.167969 642.277344 79.617188 667.132812 43.210938 672.558594 L 17.609375 676.359375 C 7.484375 677.863281 -0.00390625 686.542969 -0.00390625 696.785156 L -0.00390625 787.582031 C -0.00390625 797.824219 7.484375 806.523438 17.609375 808.027344 L 43.210938 811.828125 C 79.617188 817.234375 110.167969 842.101562 122.792969 876.671875 C 126.574219 887.027344 130.785156 897.183594 135.398438 907.105469 C 150.953125 940.605469 147.125 979.910156 125.136719 1009.574219 L 109.710938 1030.371094 C 103.621094 1038.601562 104.464844 1050.039062 111.703125 1057.285156 L 175.910156 1121.488281 C 183.140625 1128.722656 194.59375 1129.570312 202.816406 1123.488281 L 223.621094 1108.058594 C 253.292969 1086.0625 292.589844 1082.226562 326.082031 1097.804688 C 336.007812 1102.402344 346.160156 1106.605469 356.523438 1110.394531 C 391.085938 1123.027344 415.953125 1153.578125 421.367188 1189.992188 L 425.175781 1215.585938 C 426.679688 1225.710938 435.371094 1233.207031 445.601562 1233.207031 L 536.402344 1233.207031 C 546.640625 1233.207031 555.332031 1225.710938 556.835938 1215.585938 L 560.636719 1189.992188 C 566.050781 1153.578125 590.925781 1123.027344 625.488281 1110.394531 C 635.84375 1106.605469 646 1102.402344 655.925781 1097.804688 C 689.421875 1082.226562 728.71875 1086.0625 758.390625 1108.058594 L 779.195312 1123.488281 C 787.417969 1129.570312 798.863281 1128.722656 806.101562 1121.488281 L 870.304688 1057.285156 C 877.546875 1050.039062 878.390625 1038.601562 872.292969 1030.371094 L 856.875 1009.574219 C 834.882812 979.910156 831.050781 940.605469 846.613281 907.105469 C 851.226562 897.183594 855.429688 887.027344 859.21875 876.671875 C 871.84375 842.101562 902.386719 817.234375 938.800781 811.828125 L 964.394531 808.027344 C 974.511719 806.523438 982.015625 797.824219 982.015625 787.582031 L 982.015625 696.785156 C 982.015625 686.542969 974.511719 677.863281 964.394531 676.359375 Z M 1293.863281 1360.804688 C 1223.386719 1360.804688 1166.265625 1303.679688 1166.265625 1233.207031 C 1166.265625 1162.734375 1223.386719 1105.589844 1293.863281 1105.589844 C 1364.335938 1105.589844 1421.476562 1162.734375 1421.476562 1233.207031 C 1421.476562 1303.679688 1364.335938 1360.804688 1293.863281 1360.804688 Z M 1767.265625 1167.367188 L 1741.667969 1163.566406 C 1705.253906 1158.160156 1674.710938 1133.285156 1662.070312 1098.71875 C 1658.289062 1088.359375 1654.078125 1078.207031 1649.464844 1068.289062 C 1633.910156 1034.785156 1637.742188 995.484375 1659.742188 965.816406 L 1675.152344 945.015625 C 1681.25 936.792969 1680.40625 925.347656 1673.171875 918.101562 L 1608.96875 853.894531 C 1601.722656 846.664062 1590.285156 845.816406 1582.054688 851.902344 L 1561.257812 867.328125 C 1531.585938 889.324219 1492.289062 893.164062 1458.78125 877.601562 C 1448.859375 872.988281 1438.710938 868.785156 1428.355469 864.996094 C 1393.785156 852.359375 1368.917969 821.8125 1363.503906 785.402344 L 1359.703125 759.808594 C 1358.203125 749.683594 1349.5 742.179688 1339.261719 742.179688 L 1248.460938 742.179688 C 1238.226562 742.179688 1229.539062 749.683594 1228.035156 759.808594 L 1224.234375 785.402344 C 1218.8125 821.8125 1193.9375 852.359375 1159.390625 864.996094 C 1149.035156 868.785156 1138.875 872.988281 1128.941406 877.601562 C 1095.457031 893.164062 1056.152344 889.324219 1026.484375 867.328125 L 1005.671875 851.902344 C 997.460938 845.816406 986.003906 846.664062 978.777344 853.894531 L 914.570312 918.101562 C 907.316406 925.347656 906.472656 936.792969 912.578125 945.015625 L 928.003906 965.816406 C 949.980469 995.484375 953.816406 1034.785156 938.257812 1068.289062 C 933.644531 1078.207031 929.433594 1088.359375 925.652344 1098.71875 C 913.035156 1133.285156 882.476562 1158.160156 846.078125 1163.566406 L 820.46875 1167.367188 C 810.34375 1168.871094 802.855469 1177.570312 802.855469 1187.804688 L 802.855469 1278.609375 C 802.855469 1288.832031 810.34375 1297.53125 820.46875 1299.035156 L 846.078125 1302.835938 C 882.476562 1308.242188 913.035156 1333.109375 925.652344 1367.679688 C 929.433594 1378.035156 933.644531 1388.191406 938.257812 1398.125 C 953.816406 1431.613281 949.980469 1470.917969 928.003906 1500.582031 L 912.578125 1521.398438 C 906.472656 1529.609375 907.316406 1541.066406 914.570312 1548.300781 L 978.777344 1612.503906 C 986.003906 1619.730469 997.460938 1620.59375 1005.671875 1614.496094 L 1026.484375 1599.066406 C 1056.152344 1577.070312 1095.457031 1573.253906 1128.941406 1588.808594 C 1138.875 1593.421875 1149.035156 1597.632812 1159.390625 1601.417969 C 1193.960938 1614.042969 1218.8125 1644.585938 1224.234375 1680.996094 L 1228.035156 1706.59375 C 1229.539062 1716.714844 1238.226562 1724.214844 1248.460938 1724.214844 L 1339.261719 1724.214844 C 1349.5 1724.214844 1358.203125 1716.714844 1359.703125 1706.59375 L 1363.503906 1680.996094 C 1368.917969 1644.585938 1393.785156 1614.042969 1428.355469 1601.417969 C 1438.710938 1597.632812 1448.859375 1593.421875 1458.78125 1588.808594 C 1492.289062 1573.253906 1531.585938 1577.070312 1561.257812 1599.066406 L 1582.054688 1614.496094 C 1590.285156 1620.59375 1601.722656 1619.730469 1608.96875 1612.503906 L 1673.171875 1548.300781 C 1680.40625 1541.066406 1681.25 1529.609375 1675.152344 1521.398438 L 1659.742188 1500.582031 C 1637.742188 1470.917969 1633.910156 1431.613281 1649.464844 1398.125 C 1654.078125 1388.191406 1658.289062 1378.035156 1662.070312 1367.679688 C 1674.710938 1333.109375 1705.253906 1308.242188 1741.667969 1302.835938 L 1767.265625 1299.035156 C 1777.386719 1297.53125 1784.890625 1288.832031 1784.890625 1278.609375 L 1784.890625 1187.804688 C 1784.890625 1177.570312 1777.386719 1168.871094 1767.265625 1167.367188 Z M 1222.324219 452.015625 C 1169.15625 452.015625 1126.050781 408.910156 1126.050781 355.761719 C 1126.050781 302.585938 1169.15625 259.488281 1222.324219 259.488281 C 1275.496094 259.488281 1318.578125 302.585938 1318.578125 355.761719 C 1318.578125 408.910156 1275.496094 452.015625 1222.324219 452.015625 Z M 1564.398438 308.183594 L 1545.898438 305.421875 C 1519.59375 301.523438 1497.523438 283.542969 1488.382812 258.578125 C 1485.664062 251.085938 1482.621094 243.753906 1479.273438 236.574219 C 1468.039062 212.382812 1470.8125 183.980469 1486.691406 162.542969 L 1497.84375 147.5 C 1502.242188 141.574219 1501.628906 133.292969 1496.40625 128.070312 L 1450.015625 81.671875 C 1444.777344 76.441406 1436.511719 75.832031 1430.566406 80.242188 L 1415.53125 91.375 C 1394.089844 107.273438 1365.703125 110.046875 1341.492188 98.792969 C 1334.324219 95.460938 1326.980469 92.425781 1319.507812 89.6875 C 1294.523438 80.558594 1276.5625 58.472656 1272.644531 32.175781 L 1269.882812 13.6875 C 1268.808594 6.367188 1262.519531 0.949219 1255.140625 0.949219 L 1189.511719 0.949219 C 1182.132812 0.949219 1175.84375 6.367188 1174.746094 13.6875 L 1172.007812 32.175781 C 1168.085938 58.472656 1150.128906 80.558594 1125.140625 89.6875 C 1117.65625 92.425781 1110.324219 95.460938 1103.15625 98.792969 C 1078.949219 110.046875 1050.542969 107.273438 1029.105469 91.375 L 1014.085938 80.242188 C 1008.136719 75.832031 999.855469 76.441406 994.636719 81.671875 L 948.246094 128.070312 C 943.023438 133.292969 942.398438 141.574219 946.804688 147.5 L 957.960938 162.542969 C 973.839844 183.980469 976.609375 212.382812 965.359375 236.574219 C 962.03125 243.753906 958.988281 251.085938 956.25 258.578125 C 947.128906 283.542969 925.058594 301.523438 898.75 305.421875 L 880.25 308.183594 C 872.9375 309.265625 867.519531 315.546875 867.519531 322.945312 L 867.519531 388.554688 C 867.519531 395.953125 872.9375 402.238281 880.25 403.320312 L 898.75 406.074219 C 925.058594 409.980469 947.128906 427.957031 956.25 452.925781 C 958.988281 460.410156 962.03125 467.742188 965.359375 474.921875 C 976.609375 499.117188 973.839844 527.523438 957.960938 548.960938 L 946.804688 564 C 942.398438 569.949219 943.023438 578.210938 948.246094 583.445312 L 994.636719 629.824219 C 999.855469 635.0625 1008.136719 635.671875 1014.085938 631.261719 L 1029.105469 620.128906 C 1050.542969 604.226562 1078.949219 601.476562 1103.15625 612.710938 C 1110.324219 616.035156 1117.65625 619.078125 1125.140625 621.816406 C 1150.128906 630.9375 1168.085938 653.019531 1172.007812 679.328125 L 1174.746094 697.828125 C 1175.84375 705.148438 1182.132812 710.554688 1189.511719 710.554688 L 1255.140625 710.554688 C 1262.519531 710.554688 1268.808594 705.148438 1269.882812 697.828125 L 1272.644531 679.328125 C 1276.5625 653.019531 1294.523438 630.9375 1319.507812 621.816406 C 1326.980469 619.078125 1334.324219 616.035156 1341.492188 612.710938 C 1365.703125 601.476562 1394.089844 604.226562 1415.53125 620.128906 L 1430.566406 631.261719 C 1436.511719 635.671875 1444.777344 635.0625 1450.015625 629.824219 L 1496.40625 583.445312 C 1501.628906 578.210938 1502.242188 569.949219 1497.84375 564 L 1486.691406 548.960938 C 1470.8125 527.523438 1468.039062 499.117188 1479.273438 474.921875 C 1482.621094 467.742188 1485.664062 460.410156 1488.382812 452.925781 C 1497.523438 427.957031 1519.59375 409.980469 1545.898438 406.074219 L 1564.398438 403.320312 C 1571.710938 402.238281 1577.117188 395.953125 1577.117188 388.554688 L 1577.117188 322.945312 C 1577.117188 315.546875 1571.710938 309.265625 1564.398438 308.183594 " fill-opacity="1" fill-rule="nonzero"/></g></g></g></g></svg>