<svg xmlns="http://www.w3.org/2000/svg" xmlns:xlink="http://www.w3.org/1999/xlink" width="2380" zoomAndPan="magnify" viewBox="0 0 1784.88 1784.99993" height="2380" preserveAspectRatio="xMidYMid meet" version="1.0"><defs><clipPath id="358d673338"><path d="M 0.542969 0.617188 L 1260.21875 0.617188 L 1260.21875 834.617188 L 0.542969 834.617188 Z M 0.542969 0.617188 " clip-rule="nonzero"/></clipPath><clipPath id="54d10f78c1"><path d="M 530.824219 606.980469 L 603.289062 606.980469 L 603.289062 653.8125 L 530.824219 653.8125 Z M 530.824219 606.980469 " clip-rule="nonzero"/></clipPath><clipPath id="bd76492c83"><path d="M 0.824219 0.980469 L 73.289062 0.980469 L 73.289062 47.8125 L 0.824219 47.8125 Z M 0.824219 0.980469 " clip-rule="nonzero"/></clipPath><clipPath id="4539252740"><rect x="0" width="74" y="0" height="48"/></clipPath><clipPath id="57b43fc859"><rect x="0" width="1261" y="0" height="838"/></clipPath></defs><g transform="matrix(1, 0, 0, 1, 262, 475)"><g clip-path="url(#57b43fc859)"><g clip-path="url(#358d673338)"><path fill="#ffdb6e" d="M 632.828125 0.617188 C 632.023438 0.617188 631.242188 0.644531 630.4375 0.644531 C 629.632812 0.644531 628.851562 0.617188 628.042969 0.617188 C 193.710938 0.617188 0.714844 291.902344 0.714844 417.519531 C 0.714844 554.347656 227.414062 834.421875 628.042969 834.421875 C 628.851562 834.421875 629.632812 834.398438 630.4375 834.398438 C 631.242188 834.398438 632.023438 834.421875 632.828125 834.421875 C 1067.164062 834.421875 1260.160156 543.136719 1260.160156 417.519531 C 1260.160156 280.71875 1033.460938 0.617188 632.828125 0.617188 Z M 630.4375 771.902344 C 434.71875 771.902344 276.054688 613.238281 276.054688 417.519531 C 276.054688 221.800781 434.71875 63.164062 630.4375 63.164062 C 826.15625 63.164062 984.820312 221.828125 984.820312 417.546875 C 984.820312 613.265625 826.15625 771.929688 630.4375 771.929688 Z M 630.4375 771.902344 " fill-opacity="1" fill-rule="nonzero"/></g><path fill="#ffdb6e" d="M 812.628906 235.320312 C 815.609375 238.300781 818.515625 241.355469 821.347656 244.480469 C 824.179688 247.605469 826.933594 250.796875 829.609375 254.054688 C 832.285156 257.316406 834.878906 260.636719 837.390625 264.027344 C 839.902344 267.414062 842.328125 270.859375 844.671875 274.363281 C 847.015625 277.871094 849.269531 281.433594 851.4375 285.050781 C 853.605469 288.667969 855.683594 292.335938 857.671875 296.054688 C 859.660156 299.773438 861.554688 303.539062 863.355469 307.347656 C 865.160156 311.160156 866.867188 315.015625 868.480469 318.910156 C 870.09375 322.804688 871.613281 326.738281 873.03125 330.710938 C 874.453125 334.679688 875.777344 338.683594 877 342.71875 C 878.222656 346.753906 879.347656 350.816406 880.371094 354.90625 C 881.398438 358.996094 882.320312 363.109375 883.144531 367.246094 C 883.964844 371.382812 884.6875 375.535156 885.304688 379.707031 C 885.925781 383.875 886.441406 388.0625 886.855469 392.257812 C 887.265625 396.453125 887.578125 400.65625 887.785156 404.871094 C 887.992188 409.082031 888.09375 413.296875 888.09375 417.511719 C 888.09375 421.730469 887.992188 425.941406 887.785156 430.15625 C 887.578125 434.367188 887.265625 438.570312 886.855469 442.765625 C 886.441406 446.964844 885.925781 451.148438 885.304688 455.316406 C 884.6875 459.488281 883.964844 463.644531 883.144531 467.777344 C 882.320312 471.914062 881.398438 476.027344 880.371094 480.117188 C 879.347656 484.207031 878.222656 488.269531 877 492.304688 C 875.777344 496.339844 874.453125 500.34375 873.03125 504.3125 C 871.613281 508.285156 870.09375 512.21875 868.480469 516.113281 C 866.867188 520.007812 865.160156 523.863281 863.355469 527.675781 C 861.554688 531.488281 859.660156 535.253906 857.671875 538.972656 C 855.683594 542.691406 853.605469 546.359375 851.4375 549.972656 C 849.269531 553.589844 847.015625 557.152344 844.671875 560.660156 C 842.328125 564.164062 839.902344 567.613281 837.390625 571 C 834.878906 574.386719 832.285156 577.707031 829.609375 580.96875 C 826.933594 584.226562 824.179688 587.417969 821.347656 590.542969 C 818.515625 593.667969 815.609375 596.722656 812.628906 599.703125 C 809.648438 602.683594 806.59375 605.59375 803.46875 608.421875 C 800.34375 611.253906 797.152344 614.007812 793.894531 616.683594 C 790.632812 619.359375 787.308594 621.953125 783.921875 624.464844 C 780.535156 626.976562 777.089844 629.402344 773.582031 631.746094 C 770.078125 634.089844 766.515625 636.34375 762.898438 638.511719 C 759.28125 640.679688 755.613281 642.757812 751.894531 644.746094 C 748.175781 646.734375 744.410156 648.628906 740.597656 650.433594 C 736.789062 652.234375 732.933594 653.941406 729.039062 655.554688 C 725.140625 657.171875 721.210938 658.6875 717.238281 660.109375 C 713.269531 661.527344 709.265625 662.851562 705.230469 664.074219 C 701.195312 665.300781 697.132812 666.421875 693.042969 667.449219 C 688.953125 668.472656 684.839844 669.394531 680.703125 670.21875 C 676.566406 671.042969 672.414062 671.761719 668.242188 672.378906 C 664.070312 673 659.886719 673.515625 655.691406 673.929688 C 651.496094 674.34375 647.292969 674.652344 643.078125 674.859375 C 638.867188 675.066406 634.652344 675.167969 630.4375 675.167969 C 626.21875 675.167969 622.003906 675.066406 617.792969 674.859375 C 613.582031 674.652344 609.378906 674.34375 605.183594 673.929688 C 600.984375 673.515625 596.800781 673 592.628906 672.378906 C 588.460938 671.761719 584.304688 671.042969 580.171875 670.21875 C 576.035156 669.394531 571.921875 668.472656 567.832031 667.449219 C 563.742188 666.421875 559.679688 665.300781 555.644531 664.074219 C 551.609375 662.851562 547.605469 661.527344 543.632812 660.109375 C 539.664062 658.6875 535.730469 657.171875 531.835938 655.554688 C 527.941406 653.941406 524.085938 652.234375 520.273438 650.433594 C 516.460938 648.628906 512.695312 646.734375 508.976562 644.746094 C 505.257812 642.757812 501.589844 640.679688 497.972656 638.511719 C 494.355469 636.34375 490.796875 634.089844 487.289062 631.746094 C 483.785156 629.402344 480.335938 626.976562 476.949219 624.464844 C 473.5625 621.953125 470.238281 619.359375 466.980469 616.683594 C 463.722656 614.007812 460.527344 611.253906 457.40625 608.421875 C 454.28125 605.59375 451.226562 602.683594 448.246094 599.703125 C 445.261719 596.722656 442.355469 593.667969 439.523438 590.542969 C 436.691406 587.417969 433.941406 584.226562 431.265625 580.96875 C 428.589844 577.707031 425.996094 574.386719 423.484375 571 C 420.972656 567.613281 418.546875 564.164062 416.203125 560.660156 C 413.859375 557.152344 411.605469 553.589844 409.4375 549.972656 C 407.269531 546.359375 405.191406 542.691406 403.203125 538.972656 C 401.214844 535.253906 399.320312 531.488281 397.515625 527.675781 C 395.714844 523.863281 394.003906 520.007812 392.390625 516.113281 C 390.777344 512.21875 389.261719 508.285156 387.839844 504.3125 C 386.421875 500.34375 385.097656 496.339844 383.875 492.304688 C 382.648438 488.269531 381.527344 484.207031 380.5 480.117188 C 379.476562 476.027344 378.550781 471.914062 377.730469 467.777344 C 376.90625 463.644531 376.1875 459.488281 375.566406 455.316406 C 374.949219 451.148438 374.433594 446.964844 374.019531 442.765625 C 373.605469 438.570312 373.296875 434.367188 373.089844 430.15625 C 372.882812 425.941406 372.777344 421.730469 372.777344 417.511719 C 372.777344 413.296875 372.882812 409.082031 373.089844 404.871094 C 373.296875 400.65625 373.605469 396.453125 374.019531 392.257812 C 374.433594 388.0625 374.949219 383.875 375.566406 379.707031 C 376.1875 375.535156 376.90625 371.382812 377.730469 367.246094 C 378.550781 363.109375 379.476562 358.996094 380.5 354.90625 C 381.527344 350.816406 382.648438 346.753906 383.875 342.71875 C 385.097656 338.683594 386.421875 334.679688 387.839844 330.710938 C 389.261719 326.738281 390.777344 322.804688 392.390625 318.910156 C 394.003906 315.015625 395.714844 311.160156 397.515625 307.347656 C 399.320312 303.539062 401.214844 299.773438 403.203125 296.054688 C 405.191406 292.335938 407.269531 288.667969 409.4375 285.050781 C 411.605469 281.433594 413.859375 277.871094 416.203125 274.363281 C 418.546875 270.859375 420.972656 267.414062 423.484375 264.027344 C 425.996094 260.636719 428.589844 257.316406 431.265625 254.054688 C 433.941406 250.796875 436.691406 247.605469 439.523438 244.480469 C 442.355469 241.355469 445.261719 238.300781 448.246094 235.320312 C 451.226562 232.339844 454.28125 229.433594 457.40625 226.601562 C 460.527344 223.769531 463.722656 221.015625 466.980469 218.339844 C 470.238281 215.664062 473.5625 213.070312 476.949219 210.558594 C 480.335938 208.046875 483.785156 205.621094 487.289062 203.277344 C 490.796875 200.933594 494.359375 198.679688 497.972656 196.511719 C 501.589844 194.34375 505.257812 192.265625 508.976562 190.277344 C 512.695312 188.289062 516.460938 186.394531 520.273438 184.59375 C 524.085938 182.789062 527.941406 181.082031 531.835938 179.46875 C 535.730469 177.855469 539.664062 176.335938 543.632812 174.914062 C 547.605469 173.496094 551.609375 172.171875 555.644531 170.949219 C 559.679688 169.726562 563.742188 168.601562 567.832031 167.574219 C 571.921875 166.550781 576.035156 165.628906 580.171875 164.804688 C 584.304688 163.984375 588.460938 163.261719 592.628906 162.644531 C 596.800781 162.023438 600.984375 161.507812 605.183594 161.09375 C 609.378906 160.683594 613.582031 160.371094 617.792969 160.164062 C 622.003906 159.957031 626.21875 159.855469 630.4375 159.855469 C 634.652344 159.855469 638.867188 159.957031 643.078125 160.164062 C 647.292969 160.371094 651.496094 160.683594 655.691406 161.09375 C 659.886719 161.507812 664.070312 162.023438 668.242188 162.644531 C 672.414062 163.261719 676.566406 163.984375 680.703125 164.804688 C 684.839844 165.628906 688.953125 166.550781 693.042969 167.574219 C 697.132812 168.601562 701.195312 169.726562 705.230469 170.949219 C 709.265625 172.171875 713.269531 173.496094 717.238281 174.917969 C 721.210938 176.335938 725.140625 177.855469 729.039062 179.46875 C 732.933594 181.082031 736.789062 182.789062 740.597656 184.59375 C 744.410156 186.394531 748.175781 188.289062 751.894531 190.277344 C 755.613281 192.265625 759.28125 194.34375 762.898438 196.511719 C 766.515625 198.679688 770.078125 200.933594 773.582031 203.277344 C 777.089844 205.621094 780.535156 208.046875 783.921875 210.558594 C 787.308594 213.070312 790.632812 215.664062 793.894531 218.339844 C 797.152344 221.015625 800.34375 223.769531 803.46875 226.601562 C 806.59375 229.433594 809.648438 232.339844 812.628906 235.320312 Z M 812.628906 235.320312 " fill-opacity="1" fill-rule="nonzero"/><g clip-path="url(#54d10f78c1)"><g transform="matrix(1, 0, 0, 1, 530, 606)"><g clip-path="url(#4539252740)"><g clip-path="url(#bd76492c83)"><path fill="#ffdb6e" d="M 0.824219 0.980469 L 73.265625 0.980469 L 73.265625 47.8125 L 0.824219 47.8125 Z M 0.824219 0.980469 " fill-opacity="1" fill-rule="nonzero"/></g></g></g></g></g></g></svg>