<svg xmlns="http://www.w3.org/2000/svg" xmlns:xlink="http://www.w3.org/1999/xlink" width="2380" zoomAndPan="magnify" viewBox="0 0 1784.88 1784.99993" height="2380" preserveAspectRatio="xMidYMid meet" version="1.0"><defs><clipPath id="b5badb51cc"><path d="M 118 0.0585938 L 1666 0.0585938 L 1666 1784.9375 L 118 1784.9375 Z M 118 0.0585938 " clip-rule="nonzero"/></clipPath><clipPath id="fbba1e0ab8"><path d="M 2.480469 0.0585938 L 1546 0.0585938 L 1546 1784.9375 L 2.480469 1784.9375 Z M 2.480469 0.0585938 " clip-rule="nonzero"/></clipPath><clipPath id="c99a51dc82"><path d="M 735.90625 1257.300781 L 808.371094 1257.300781 L 808.371094 1304.132812 L 735.90625 1304.132812 Z M 735.90625 1257.300781 " clip-rule="nonzero"/></clipPath><clipPath id="9e71331836"><path d="M 0.90625 0.300781 L 73.371094 0.300781 L 73.371094 47.132812 L 0.90625 47.132812 Z M 0.90625 0.300781 " clip-rule="nonzero"/></clipPath><clipPath id="f74ae98579"><rect x="0" width="74" y="0" height="48"/></clipPath><clipPath id="54e5bf22ed"><rect x="0" width="1548" y="0" height="1785"/></clipPath></defs><g clip-path="url(#b5badb51cc)"><g transform="matrix(1, 0, 0, 1, 118, -0.000000000000097387)"><g clip-path="url(#54e5bf22ed)"><g clip-path="url(#fbba1e0ab8)"><path fill="#ffdb6e" d="M 804.28125 1161.199219 L 1029.296875 1291.109375 L 774.246094 1438.363281 L 519.195312 1291.109375 L 744.210938 1161.199219 L 744.210938 853.976562 L 804.28125 853.976562 Z M 139.363281 1043.445312 C 127.992188 1068.019531 103.105469 1085.089844 74.269531 1085.089844 C 34.707031 1085.089844 2.59375 1052.96875 2.59375 1013.40625 C 2.59375 973.847656 34.707031 941.726562 74.269531 941.726562 C 103.105469 941.726562 127.992188 958.796875 139.363281 983.371094 L 338.738281 983.371094 L 338.738281 853.976562 L 398.808594 853.976562 L 398.808594 1013.40625 C 398.808594 1029.996094 385.363281 1043.445312 368.773438 1043.445312 Z M 1409.128906 1043.445312 L 1179.722656 1043.445312 C 1163.128906 1043.445312 1149.683594 1029.996094 1149.683594 1013.40625 L 1149.683594 853.976562 L 1209.757812 853.976562 L 1209.757812 983.371094 L 1409.128906 983.371094 C 1420.503906 958.796875 1445.386719 941.726562 1474.226562 941.726562 C 1513.785156 941.726562 1545.902344 973.847656 1545.902344 1013.40625 C 1545.902344 1052.96875 1513.785156 1085.089844 1474.226562 1085.089844 C 1445.386719 1085.089844 1420.503906 1068.019531 1409.128906 1043.445312 Z M 1156.449219 1261.476562 L 967.40625 1072.433594 C 961.773438 1066.796875 958.609375 1059.160156 958.609375 1051.191406 L 958.609375 853.976562 L 1018.679688 853.976562 L 1018.679688 1038.75 L 1198.929688 1219 C 1206.65625 1216.148438 1215.007812 1214.589844 1223.71875 1214.589844 C 1263.28125 1214.589844 1295.398438 1246.707031 1295.398438 1286.265625 C 1295.398438 1325.828125 1263.28125 1357.949219 1223.71875 1357.949219 C 1184.160156 1357.949219 1152.042969 1325.828125 1152.042969 1286.265625 C 1152.042969 1277.558594 1153.601562 1269.203125 1156.449219 1261.476562 Z M 392.042969 1261.476562 C 394.890625 1269.203125 396.449219 1277.558594 396.449219 1286.265625 C 396.449219 1325.828125 364.335938 1357.949219 324.773438 1357.949219 C 285.214844 1357.949219 253.09375 1325.828125 253.09375 1286.265625 C 253.09375 1246.707031 285.214844 1214.589844 324.773438 1214.589844 C 333.484375 1214.589844 341.835938 1216.148438 349.566406 1219 L 529.8125 1038.75 L 529.8125 853.976562 L 589.882812 853.976562 L 589.882812 1051.191406 C 589.882812 1059.160156 586.71875 1066.796875 581.085938 1072.433594 Z M 953.261719 793.90625 C 961.832031 689.335938 993.027344 643.863281 1016.972656 598.140625 C 1036.621094 560.625 1052.121094 522.972656 1052.121094 461.683594 C 1052.121094 308.21875 927.710938 183.808594 774.246094 183.808594 C 620.78125 183.808594 496.371094 308.21875 496.371094 461.683594 C 496.371094 522.972656 511.875 560.625 531.519531 598.140625 C 555.464844 643.863281 586.664062 689.335938 595.230469 793.90625 L 336.261719 793.90625 C 215.503906 793.90625 116.722656 695.128906 116.722656 574.449219 C 116.722656 482.886719 173.570312 403.992188 253.632812 371.140625 C 253.242188 364.460938 253.089844 357.707031 253.089844 350.949219 C 253.089844 157.195312 410.113281 0.09375 603.867188 0.09375 C 698.609375 0.09375 784.652344 37.679688 847.789062 98.796875 C 881.179688 86.835938 917.132812 80.316406 954.644531 80.316406 C 1117.957031 80.316406 1252.300781 203.867188 1269.464844 362.597656 C 1364.753906 388.460938 1431.769531 475.589844 1431.769531 574.449219 C 1431.769531 695.128906 1332.988281 793.90625 1212.230469 793.90625 Z M 655.488281 793.90625 C 648.046875 693.367188 622.421875 640.453125 598.335938 595.589844 C 577.078125 555.992188 556.441406 524 556.441406 461.683594 C 556.441406 341.394531 653.957031 243.878906 774.246094 243.878906 C 894.535156 243.878906 992.050781 341.394531 992.050781 461.683594 C 992.050781 524 971.414062 555.992188 950.160156 595.589844 C 926.074219 640.453125 900.445312 693.367188 893.003906 793.90625 L 847.058594 793.90625 L 847.058594 551.101562 L 874.660156 551.101562 C 922.816406 551.101562 962.253906 511.664062 962.253906 463.511719 C 962.253906 415.234375 922.808594 375.832031 874.660156 375.832031 C 826.398438 375.832031 786.984375 415.25 786.984375 463.511719 L 786.984375 491.03125 L 761.507812 491.03125 L 761.507812 463.511719 C 761.507812 415.25 722.09375 375.832031 673.832031 375.832031 C 625.6875 375.832031 586.238281 415.234375 586.238281 463.511719 C 586.238281 511.664062 625.675781 551.101562 673.832031 551.101562 L 701.4375 551.101562 L 701.4375 793.90625 Z M 761.507812 793.90625 L 761.507812 551.101562 L 786.984375 551.101562 L 786.984375 793.90625 Z M 847.058594 491.03125 L 847.058594 463.511719 C 847.058594 448.316406 859.464844 435.902344 874.660156 435.902344 C 889.804688 435.902344 902.183594 448.328125 902.183594 463.511719 C 902.183594 478.640625 889.792969 491.03125 874.660156 491.03125 Z M 701.4375 491.03125 L 673.832031 491.03125 C 658.699219 491.03125 646.308594 478.640625 646.308594 463.511719 C 646.308594 448.328125 658.6875 435.902344 673.832031 435.902344 C 689.027344 435.902344 701.4375 448.316406 701.4375 463.511719 Z M 1059.335938 1343.136719 L 1059.335938 1637.644531 L 804.28125 1784.898438 L 804.28125 1490.390625 Z M 744.210938 1784.898438 L 489.160156 1637.644531 L 489.160156 1343.136719 L 744.210938 1490.390625 Z M 744.210938 1784.898438 " fill-opacity="1" fill-rule="evenodd"/></g><g clip-path="url(#c99a51dc82)"><g transform="matrix(1, 0, 0, 1, 735, 1257)"><g clip-path="url(#f74ae98579)"><g clip-path="url(#9e71331836)"><path fill="#ffdb6e" d="M 0.90625 0.300781 L 73.34375 0.300781 L 73.34375 47.132812 L 0.90625 47.132812 Z M 0.90625 0.300781 " fill-opacity="1" fill-rule="nonzero"/></g></g></g></g></g></g></g></svg>