<svg xmlns="http://www.w3.org/2000/svg" xmlns:xlink="http://www.w3.org/1999/xlink" width="2380" zoomAndPan="magnify" viewBox="0 0 1784.88 1784.99993" height="2380" preserveAspectRatio="xMidYMid meet" version="1.0"><defs><clipPath id="c2eeda81d1"><path d="M 3.332031 0.640625 L 1206.179688 0.640625 L 1206.179688 1203.679688 L 3.332031 1203.679688 Z M 3.332031 0.640625 " clip-rule="nonzero"/></clipPath><clipPath id="5a8c4b98df"><path d="M 431.546875 1010.222656 L 482.332031 1010.222656 L 482.332031 1043.042969 L 431.546875 1043.042969 Z M 431.546875 1010.222656 " clip-rule="nonzero"/></clipPath><clipPath id="1facde9381"><path d="M 0.546875 0.222656 L 51.332031 0.222656 L 51.332031 33.042969 L 0.546875 33.042969 Z M 0.546875 0.222656 " clip-rule="nonzero"/></clipPath><clipPath id="9b5fc3c916"><rect x="0" width="52" y="0" height="34"/></clipPath><clipPath id="4856579bd9"><rect x="0" width="1207" y="0" height="1204"/></clipPath></defs><g transform="matrix(1, 0, 0, 1, 287, 291)"><g clip-path="url(#4856579bd9)"><g clip-path="url(#c2eeda81d1)"><path fill="#ffdb6e" d="M 1205.402344 223.058594 C 1203.347656 214.992188 1197.191406 208.605469 1189.203125 206.257812 L 1043.527344 163.410156 L 1000.679688 17.730469 C 998.332031 9.746094 991.949219 3.589844 983.882812 1.535156 C 975.824219 -0.515625 967.265625 1.828125 961.378906 7.710938 L 849.835938 119.253906 C 843.734375 125.355469 841.449219 134.304688 843.886719 142.585938 L 886.414062 287.175781 L 856.820312 316.765625 C 656.558594 133.902344 346.394531 139.347656 152.699219 333.046875 C 56.375 429.363281 3.332031 557.425781 3.332031 693.644531 C 3.332031 975.523438 231.449219 1203.609375 513.292969 1203.609375 C 649.511719 1203.609375 777.574219 1150.566406 873.890625 1054.246094 C 1067.621094 860.515625 1073.003906 550.351562 890.171875 350.121094 L 919.761719 320.53125 L 1064.351562 363.054688 C 1072.640625 365.492188 1081.589844 363.195312 1087.683594 357.105469 L 1199.226562 245.5625 C 1205.109375 239.675781 1207.457031 231.125 1205.402344 223.058594 Z M 840.539062 1020.890625 C 659.65625 1201.777344 366.902344 1201.746094 186.046875 1020.890625 C 5.164062 840.007812 5.1875 547.253906 186.046875 366.398438 C 361.335938 191.109375 641.683594 185.714844 823.441406 350.140625 L 780.289062 393.292969 C 622.375 252.621094 380.574219 258.015625 229.121094 409.472656 C 72.042969 566.546875 72.066406 820.761719 229.121094 977.8125 C 386.195312 1134.890625 640.414062 1134.867188 797.464844 977.8125 C 948.9375 826.339844 954.296875 584.542969 813.640625 426.644531 L 856.792969 383.492188 C 1021.25 565.28125 1015.804688 845.628906 840.539062 1020.890625 Z M 496.617188 710.320312 C 505.828125 719.527344 520.753906 719.53125 529.972656 710.320312 L 618.039062 622.25 C 631.953125 642.601562 640.109375 667.183594 640.109375 693.644531 C 640.109375 763.570312 583.222656 820.460938 513.292969 820.460938 C 443.367188 820.460938 386.476562 763.570312 386.476562 693.644531 C 386.476562 623.714844 443.367188 566.832031 513.292969 566.832031 C 539.753906 566.832031 564.335938 574.984375 584.683594 588.898438 L 496.613281 676.96875 C 487.40625 686.175781 487.40625 701.109375 496.617188 710.320312 Z M 618.4375 555.148438 C 589.207031 532.902344 552.777344 519.660156 513.292969 519.660156 C 417.359375 519.660156 339.308594 597.710938 339.308594 693.644531 C 339.308594 789.582031 417.359375 867.628906 513.292969 867.628906 C 609.226562 867.628906 687.277344 789.578125 687.277344 693.644531 C 687.277344 654.164062 674.035156 617.730469 651.792969 588.5 L 703.558594 536.730469 C 783.5 633.519531 778.21875 777.5 687.683594 868.035156 C 591.53125 964.195312 435.0625 964.195312 338.902344 868.035156 C 242.746094 771.878906 242.746094 615.414062 338.902344 519.253906 C 429.4375 428.714844 573.421875 423.4375 670.207031 503.375 Z M 893.089844 142.707031 L 966.640625 69.15625 L 997.957031 175.628906 L 924.402344 249.183594 Z M 1064.230469 313.851562 L 957.757812 282.535156 L 1031.308594 208.980469 L 1137.78125 240.296875 Z M 1064.230469 313.851562 " fill-opacity="1" fill-rule="nonzero"/></g><g clip-path="url(#5a8c4b98df)"><g transform="matrix(1, 0, 0, 1, 431, 1010)"><g clip-path="url(#9b5fc3c916)"><g clip-path="url(#1facde9381)"><path fill="#ffdb6e" d="M 0.546875 0.222656 L 51.316406 0.222656 L 51.316406 33.042969 L 0.546875 33.042969 Z M 0.546875 0.222656 " fill-opacity="1" fill-rule="nonzero"/></g></g></g></g></g></g></svg>