<svg xmlns="http://www.w3.org/2000/svg" xmlns:xlink="http://www.w3.org/1999/xlink" width="2380" zoomAndPan="magnify" viewBox="0 0 1784.88 1784.99993" height="2380" preserveAspectRatio="xMidYMid meet" version="1.0"><defs><clipPath id="188089e15a"><path d="M 350 629 L 1030 629 L 1030 1334.40625 L 350 1334.40625 Z M 350 629 " clip-rule="nonzero"/></clipPath><clipPath id="26955daccc"><path d="M 653.207031 765.417969 L 725.671875 765.417969 L 725.671875 812.25 L 653.207031 812.25 Z M 653.207031 765.417969 " clip-rule="nonzero"/></clipPath><clipPath id="189dc5104c"><path d="M 0.207031 0.417969 L 72.671875 0.417969 L 72.671875 47.25 L 0.207031 47.25 Z M 0.207031 0.417969 " clip-rule="nonzero"/></clipPath><clipPath id="68cf40ec5a"><rect x="0" width="73" y="0" height="48"/></clipPath><clipPath id="f6e7983148"><rect x="0" width="1379" y="0" height="1344"/></clipPath></defs><g transform="matrix(1, 0, 0, 1, 203, 223)"><g clip-path="url(#f6e7983148)"><path fill="#ffdb6e" d="M 530.953125 300.609375 C 544.90625 310.761719 550.203125 323.390625 553.203125 339.371094 C 561.414062 382.542969 579.605469 420.773438 614.921875 448.851562 C 639.199219 468.101562 666.660156 479.402344 698.003906 476.753906 C 728.023438 474.191406 753.628906 460.859375 775.171875 440.023438 C 805.011719 411.238281 820.554688 375.128906 827.617188 334.957031 C 829.910156 322.066406 834.328125 311.824219 845.628906 303.523438 C 864.433594 289.75 874.675781 270.148438 874.410156 246.398438 C 874.324219 234.742188 870.085938 224.589844 856.398438 221.058594 C 857.988281 210.285156 859.84375 200.222656 860.992188 190.15625 C 864.609375 158.28125 865.050781 126.675781 850.835938 96.742188 C 823.113281 38.382812 762.105469 4.566406 696.0625 10.570312 C 692.792969 10.835938 689.4375 11.1875 686.261719 10.835938 C 657.300781 8.097656 629.222656 11.894531 603 24.34375 C 555.058594 47.035156 524.949219 83.765625 518.0625 137.535156 C 514.445312 165.523438 518.859375 193.070312 523.449219 220.441406 C 509.765625 226.53125 504.203125 235.449219 505.351562 250.988281 C 506.9375 271.03125 514.972656 288.957031 530.953125 300.609375 Z M 530.953125 300.609375 " fill-opacity="1" fill-rule="nonzero"/><path fill="#ffdb6e" d="M 405.84375 475.164062 L 528.21875 660.398438 C 529.808594 662.871094 533.605469 662.34375 534.488281 659.515625 C 542.257812 635.324219 557.175781 614.664062 577.660156 599.742188 C 598.144531 584.820312 622.425781 576.875 647.765625 576.875 L 744.003906 576.875 C 769.785156 576.875 795.390625 585.441406 815.875 601.066406 C 832.03125 613.253906 844.832031 629.675781 852.957031 648.128906 C 854.105469 650.6875 857.546875 651.042969 859.136719 648.65625 L 973.738281 475.25 C 987.25 454.855469 972.59375 427.664062 948.136719 427.664062 L 846.6875 427.664062 C 836.445312 445.496094 823.996094 461.566406 809.339844 475.691406 C 778.171875 505.800781 741.972656 522.753906 701.976562 526.109375 C 697.648438 526.460938 693.234375 526.636719 688.820312 526.636719 C 651.828125 526.636719 616.511719 513.480469 583.929688 487.613281 C 563.09375 471.015625 545.964844 450.972656 532.632812 427.664062 L 431.449219 427.664062 C 406.992188 427.574219 392.335938 454.769531 405.84375 475.164062 Z M 405.84375 475.164062 " fill-opacity="1" fill-rule="nonzero"/><path fill="#ffdb6e" d="M 118.71875 382.988281 C 130.636719 391.640625 135.140625 402.410156 137.703125 416.007812 C 144.675781 452.824219 160.214844 485.40625 190.324219 509.242188 C 210.984375 525.667969 234.382812 535.289062 261.132812 532.996094 C 286.738281 530.875 308.546875 519.398438 326.910156 501.652344 C 337.949219 491.054688 346.6875 479.226562 353.488281 466.421875 C 362.40625 449.734375 368.144531 431.457031 371.585938 412.035156 C 371.941406 409.914062 372.382812 407.882812 372.910156 405.941406 C 375.121094 397.730469 379.179688 390.933594 386.949219 385.195312 C 402.929688 373.449219 411.671875 356.761719 411.496094 336.542969 C 411.40625 326.65625 407.875 317.914062 396.132812 315 C 397.546875 305.820312 399.046875 297.253906 400.015625 288.691406 C 403.109375 261.496094 403.460938 234.566406 391.363281 209.140625 C 367.789062 159.429688 315.699219 130.558594 259.457031 135.679688 C 256.632812 135.945312 253.804688 136.210938 251.070312 135.945312 C 226.433594 133.648438 202.417969 136.828125 180.082031 147.421875 C 139.289062 166.757812 113.597656 198.101562 107.769531 243.835938 C 104.679688 267.675781 108.476562 291.164062 112.363281 314.472656 C 100.707031 319.679688 95.9375 327.273438 96.910156 340.429688 C 98.234375 357.734375 105.035156 373.007812 118.71875 382.988281 Z M 118.71875 382.988281 " fill-opacity="1" fill-rule="nonzero"/><path fill="#ffdb6e" d="M 436.039062 607.335938 L 373.53125 512.6875 C 368.234375 519.574219 362.40625 526.019531 356.136719 532.023438 C 329.558594 557.628906 298.746094 572.109375 264.664062 574.933594 C 260.957031 575.285156 257.160156 575.375 253.453125 575.375 C 221.84375 575.375 191.824219 564.160156 164.101562 542.089844 C 146.355469 527.960938 131.699219 510.832031 120.394531 490.96875 L 33.871094 490.96875 C 13.03125 490.96875 0.585938 514.101562 12.0625 531.492188 L 232.351562 864.886719 C 242.679688 880.511719 265.636719 880.511719 275.96875 864.886719 L 436.039062 622.609375 C 439.132812 618.109375 439.132812 612.015625 436.039062 607.335938 Z M 436.039062 607.335938 " fill-opacity="1" fill-rule="nonzero"/><path fill="#ffdb6e" d="M 990.164062 382.988281 C 998.902344 389.433594 1003.671875 396.9375 1006.585938 405.941406 C 1007.644531 409.121094 1008.4375 412.476562 1009.144531 416.007812 C 1012.589844 434.019531 1018.0625 451.058594 1026.273438 466.511719 C 1034.839844 482.667969 1046.402344 497.058594 1061.765625 509.332031 C 1082.425781 525.753906 1105.824219 535.378906 1132.578125 533.082031 C 1158.183594 530.964844 1179.992188 519.484375 1198.355469 501.738281 C 1223.78125 477.195312 1237.027344 446.378906 1243.03125 412.210938 C 1244.972656 401.175781 1248.769531 392.523438 1258.394531 385.457031 C 1274.375 373.714844 1283.117188 357.027344 1282.9375 336.808594 C 1282.851562 326.921875 1279.320312 318.179688 1267.574219 315.265625 C 1268.988281 306.082031 1270.488281 297.519531 1271.460938 288.957031 C 1274.550781 261.761719 1274.902344 234.832031 1262.808594 209.402344 C 1239.234375 159.695312 1187.140625 130.824219 1130.898438 135.945312 C 1128.074219 136.210938 1125.25 136.476562 1122.511719 136.210938 C 1097.878906 133.914062 1073.863281 137.09375 1051.523438 147.6875 C 1010.734375 167.023438 985.042969 198.367188 979.214844 244.101562 C 976.125 267.941406 979.921875 291.425781 983.804688 314.738281 C 972.152344 319.945312 967.382812 327.539062 968.355469 340.695312 C 969.679688 357.734375 976.566406 373.007812 990.164062 382.988281 Z M 990.164062 382.988281 " fill-opacity="1" fill-rule="nonzero"/><path fill="#ffdb6e" d="M 1345.890625 491.144531 L 1259.453125 491.144531 C 1250.710938 506.332031 1240.117188 520.015625 1227.667969 532.113281 C 1201.09375 557.714844 1170.277344 572.195312 1136.199219 575.023438 C 1132.488281 575.375 1128.691406 575.464844 1124.984375 575.464844 C 1093.375 575.464844 1063.355469 564.25 1035.632812 542.175781 C 1024.683594 533.4375 1014.882812 523.546875 1006.320312 512.597656 L 943.808594 607.25 C 940.71875 611.929688 940.71875 617.933594 943.808594 622.609375 L 1103.882812 864.886719 C 1114.210938 880.511719 1137.167969 880.511719 1147.5 864.886719 L 1367.789062 531.492188 C 1379.175781 514.277344 1366.726562 491.144531 1345.890625 491.144531 Z M 1345.890625 491.144531 " fill-opacity="1" fill-rule="nonzero"/><g clip-path="url(#188089e15a)"><path fill="#ffdb6e" d="M 959.082031 978.515625 L 1009.058594 927.835938 C 1029.980469 906.558594 1034.21875 873.980469 1019.476562 848.019531 L 971.710938 764.410156 C 957.316406 739.246094 928.445312 726.265625 900.105469 732.269531 L 827.882812 747.542969 L 808.28125 677.96875 C 800.246094 649.273438 774.023438 629.410156 744.179688 629.410156 L 647.941406 629.410156 C 618.980469 629.410156 593.378906 648.128906 584.546875 675.675781 L 560.796875 749.488281 L 479.746094 732.359375 C 451.402344 726.355469 422.445312 739.332031 408.140625 764.496094 L 360.375 848.109375 C 345.542969 874.066406 349.867188 906.648438 370.792969 927.925781 L 420.765625 978.605469 L 368.144531 1036.082031 C 348.632812 1057.449219 345.101562 1088.96875 359.402344 1114.132812 L 407.167969 1197.746094 C 422.003906 1223.703125 452.199219 1236.59375 481.15625 1229.355469 L 559.296875 1209.84375 L 584.460938 1288.246094 C 593.289062 1315.792969 618.980469 1334.511719 647.851562 1334.511719 L 744.09375 1334.511719 C 773.933594 1334.511719 800.15625 1314.644531 808.191406 1285.949219 L 828.941406 1212.050781 L 898.515625 1229.441406 C 927.476562 1236.683594 957.671875 1223.792969 972.503906 1197.835938 L 1020.269531 1114.222656 C 1034.660156 1089.058594 1031.128906 1057.539062 1011.527344 1036.171875 Z M 689.878906 1141.679688 C 601.589844 1141.679688 529.984375 1070.074219 529.984375 981.785156 C 529.984375 893.492188 601.589844 821.886719 689.878906 821.886719 C 778.171875 821.886719 849.777344 893.492188 849.777344 981.785156 C 849.777344 1070.074219 778.171875 1141.679688 689.878906 1141.679688 Z M 689.878906 1141.679688 " fill-opacity="1" fill-rule="nonzero"/></g><g clip-path="url(#26955daccc)"><g transform="matrix(1, 0, 0, 1, 653, 765)"><g clip-path="url(#68cf40ec5a)"><g clip-path="url(#189dc5104c)"><path fill="#ffdb6e" d="M 0.207031 0.417969 L 72.648438 0.417969 L 72.648438 47.25 L 0.207031 47.25 Z M 0.207031 0.417969 " fill-opacity="1" fill-rule="nonzero"/></g></g></g></g></g></g></svg>